<mxfile host="app.diagrams.net" agent="Mozilla/5.0 (Windows NT 10.0; Win64; x64) AppleWebKit/537.36 (KHTML, like Gecko) Chrome/139.0.0.0 Safari/537.36" version="28.2.1">
  <diagram name="ページ1" id="FXLQbVOzL8qcLXzDt_cl">
    <mxGraphModel dx="983" dy="536" grid="1" gridSize="10" guides="1" tooltips="1" connect="1" arrows="1" fold="1" page="1" pageScale="1" pageWidth="827" pageHeight="1169" math="0" shadow="0">
      <root>
        <mxCell id="0" />
        <mxCell id="1" parent="0" />
        <mxCell id="6PSJ0aaz2sJnb9yhWgYf-1" value="&lt;font style=&quot;font-size: 18px;&quot;&gt;web論文&lt;/font&gt;" style="text;html=1;align=center;verticalAlign=middle;resizable=0;points=[];autosize=1;strokeColor=none;fillColor=none;" vertex="1" parent="1">
          <mxGeometry x="40" y="40" width="90" height="40" as="geometry" />
        </mxCell>
        <mxCell id="6PSJ0aaz2sJnb9yhWgYf-2" value="ユーザ" style="shape=umlActor;verticalLabelPosition=bottom;verticalAlign=top;html=1;outlineConnect=0;" vertex="1" parent="1">
          <mxGeometry x="190" y="170" width="40" height="80" as="geometry" />
        </mxCell>
        <mxCell id="6PSJ0aaz2sJnb9yhWgYf-3" value="" style="rounded=0;whiteSpace=wrap;html=1;" vertex="1" parent="1">
          <mxGeometry x="320" y="80" width="320" height="200" as="geometry" />
        </mxCell>
        <mxCell id="6PSJ0aaz2sJnb9yhWgYf-7" value="システム内部" style="text;html=1;align=center;verticalAlign=middle;resizable=0;points=[];autosize=1;strokeColor=none;fillColor=none;" vertex="1" parent="1">
          <mxGeometry x="425" y="100" width="100" height="30" as="geometry" />
        </mxCell>
        <mxCell id="6PSJ0aaz2sJnb9yhWgYf-8" value="" style="ellipse;whiteSpace=wrap;html=1;" vertex="1" parent="1">
          <mxGeometry x="370" y="150" width="240" height="50" as="geometry" />
        </mxCell>
        <mxCell id="6PSJ0aaz2sJnb9yhWgYf-9" value="学生情報を登録する" style="text;html=1;align=center;verticalAlign=middle;resizable=0;points=[];autosize=1;strokeColor=none;fillColor=none;" vertex="1" parent="1">
          <mxGeometry x="425" y="165" width="130" height="30" as="geometry" />
        </mxCell>
        <mxCell id="6PSJ0aaz2sJnb9yhWgYf-10" value="" style="ellipse;whiteSpace=wrap;html=1;" vertex="1" parent="1">
          <mxGeometry x="370" y="210" width="240" height="50" as="geometry" />
        </mxCell>
        <mxCell id="6PSJ0aaz2sJnb9yhWgYf-11" value="学術論文を登録する" style="text;html=1;align=center;verticalAlign=middle;resizable=0;points=[];autosize=1;strokeColor=none;fillColor=none;" vertex="1" parent="1">
          <mxGeometry x="425" y="220" width="130" height="30" as="geometry" />
        </mxCell>
        <mxCell id="6PSJ0aaz2sJnb9yhWgYf-14" value="" style="endArrow=none;html=1;rounded=0;" edge="1" parent="1">
          <mxGeometry width="50" height="50" relative="1" as="geometry">
            <mxPoint x="260" y="210" as="sourcePoint" />
            <mxPoint x="370" y="190" as="targetPoint" />
          </mxGeometry>
        </mxCell>
        <mxCell id="6PSJ0aaz2sJnb9yhWgYf-15" value="" style="endArrow=none;html=1;rounded=0;" edge="1" parent="1">
          <mxGeometry width="50" height="50" relative="1" as="geometry">
            <mxPoint x="260" y="210" as="sourcePoint" />
            <mxPoint x="370" y="230" as="targetPoint" />
          </mxGeometry>
        </mxCell>
        <mxCell id="6PSJ0aaz2sJnb9yhWgYf-16" value="" style="shape=image;verticalLabelPosition=bottom;labelBackgroundColor=default;verticalAlign=top;aspect=fixed;imageAspect=0;image=data:image/png,iVBORw0KGgoAAAANSUhEUgAAAY0AAAGBCAYAAACaZe2qAAAAAXNSR0IArs4c6QAAAARnQU1BAACxjwv8YQUAAAAJcEhZcwAADsMAAA7DAcdvqGQAAO8RSURBVHhe7J13fBXF2oCfLaclIYXQRQXpVooICope9arYvdcuYi/X3ivqp9dyrSgWrNgQe8UKolgRLAiKdBFREAypJ6dsme+P2d1sTk5IAgES3Se/yTlnd2Z3yjvzTh+lujopysvKKS4uRtM1XBTvW+MQjhsBCOH/1VjcN2Z3oygKtmWz5s81FBYWoqoqiqKgKNKd+9kgrteaQmPcON62bAshBEIIKisr6dChHaZpoyhqvWHbXAghQEAymaQqHqddu+LGx+Mmwu8fVYGy8gpM06Rt27YIAe7tTOkRXlQ3Nc6bKrdkeXtj2fzvUlCwhY2uq5SUlKKgkNemDULYqIrqvU5RlIbzQUP366MhdwIEAgWFtJEmHA5TVlpGTm4OsVgUy7JbnNwC2LYNwNq1a4nFYuTl5TllY0tBQVGcqFfAMExKSkooKioiHA5LK07auNKjAIptCVFRWUlBQZuMB64H/sRvQtwIajJ/NnfufduGiooKCgry61poBK41VZWFihANympNZDkRZ2dx4913/Kiq8np5uYxXr3BryJ+K46d1xEUdHDdkxuG63pfhxjRtqquryc/PW7df1+ddrGe4MuXCIZU0MC2T3NxY7Rt+XD+53xvC9Z/zvVFuHGr5sTHuNse71uXGZ6eyMo6u68RiEZ/Sbb58kg33NevKk8K5D2BZAk1TiFclCIVDhMN6Vjd12MSy6/dQRUUV0Wi0Yb+uz7sy5YlGunPJ8IxbZtWLACWdNkV5eQXFxUW1CoumvNdFcQRsfdw2hKJIgVm7toTCwkKvZqG60tRoGpKSbDTkRt6XQilbGUIIKioqaNeuLZYla8nresLmQlUgmUoTj8dpW1Qkw1CvVG96/EpDUaCqqhrTNCkszPcymL+Ac8l2LaAuCmALWRCXlpajqip5eXnYtqy919TgG8oDNNJONhp2J4RAUVRM0yQc1ikrKycWjRGNhbGsupWLzY2igLBBUWHt2jJisSixWLTFyaU/3mwbSkvXUlhYhK4rWf2qAKr7pdZVp9bcVOO5dTzTXMbzmiNbNTUGBQUp2KraWEOWaw2ZhtyAqiioPs/6I1zZgDjdKMbxk+qmmfTlBqX9RjG++PO+u55047WZZe3vZmR6+zJZLbmV+UtVGpMHGmsnm2mMO1X616mcCV+VPTNMLcY4vXuZclzHXgsybg6rL15RQFUV1ZcgLR9FdfrhatWCWggKuPEp47SpraBNhBNtbvkg/SvjtaWjOIVIQPPjVsBwFIaLp0ey1Dw3JYriyur69DBsJhRQnPKgpSPjV0FpIH+ptVRhCyXTe4qi1AwoZd7cXPg0MU4CtBSvNYaa+kXLxmlbZl4OaAYEolaB4SkQ74J3a5PTGio09dGavN6Y3CXV32auQeAWsg0aJzgCrxavbCKBEkL2UWb287nv93vBawVtAn81Fy1ABBqFcAq3gMbjyeg6DMhWshw7ULyiTlE3Qann5i3bJ4heF3Tt/O1vCTVcvAU0FZm/1k3LbzNl4DahPQWyCeUma2S678/IgK2N1uJtp8jIvBzQTMj81fLk2FNwvrTPmh8DNojGJHurUxoCN2QtV2QUn3ILCGiNtKz1BHWRLY2AzUGrUxqtAqk1Gqm3AwICGo2TpVpb9+9fiUBpbFRadm0tIKDVEmStzUagNAICAgICGk2gNAICAgICGk2gNAICAgICGk2gNAICAgICGk2rUxrBhImAgICAzUerUxrBpImAgICAzUerUxreqtBAewQENDvBgtSAhqjZwKk1oQT7D/2daW3i2loQyF2Eg6z196ah/KW6BwZlIvesb7qBRrx1Q3D20g9qRH8DnCQWwr+PnfzzkymDnhwGNAnFPaI0Y4+ngL8uQrhlqvNZJ3fVzVuq5yDDUh2XLQThnIzn3/E24C+OT0ZrVXKCtG9eFBm/8nugNP4uCOefyJK/sukCVdYqspD1YktAesy2XeGufTfgL0itNA4SfGMja5R25uWAvzJetvLlL/drRpaTLY3a11o87vbNAX9HWpu0tiIEMncFeevvh5etfPnL/VqnpdEaCYQ6IGCjEGStgIZonUojICAgIGCzECiNgICAgIBGEyiNgICAgIBGEyiNgICAgIBGEyiNgICAgIBGEyiNgICAgIBG0+qURjAlMCAgIGDz0eqUBorciTPbflkBAQHNQ7C3W0B9tD6lQd0VipuKIBsF/JUROLvcthY2Uznwl6RJ24hkQVE2vWksQghsYaOqWb2+0VAUUNQavzbV3wHNR9DIbBrC20+qfoMj0+7nJt2qx81bat2CKps/gay7sTaWzLJnY5jWQqa/VUWp1crMvK8o9SiNlo0MUNA9FRCw8WhNBV/ApqUVKg1HWQQ6IyBgoxFkr4D6aHVKQzablTr9bAEBAQEBG59WpzSE9y+gWWnhSri296QABGKwEfgbROom79lWvH9/CVqd0oC/VPxvHoSMQn80umNEqjPY3xKN9J+Kpmrg63fPtBeYphsAVVFRNVkktDQ5cKk9SCu/+++vi2zP25i471FVFV13ZLYR8drSUYy0JcorKiguLsy813IQsoSzbSgpWUtRUaEnMOpmmiJYX+K6tRghoLy8nKKiAmy7fvubG0UBI21RWVlJ2+JCTMNGUdVaY0fuEbv+yQebYyKCqqrE43FSqRRFRUXYth2sJ9hAFBRsIdB1jdLSUlRVpU2bNi0vbh05RIAe0ikrLSMSjRCJRKRfG1OTVBRPrhVF2XitKkXGqxACRVWpKC8nJzcHXQ85JyJm96v0nSAU0uV3p9zbmPiTWAgoKy2noLCAdU1ODZTGelJffmpVSkPImk8ikUIIQU5O1IvrloptQ7wqTpv83MxbARtIMpnGtm0pBy2cZDJNNBrOvNwiMU0bXV9HKZyFdeiWZmX9lIZhiYryCtq2ZKXhIBylUbiZlYbi/auLVwEXUF5eQWFRfotVGsKWSmPZsl/45ZflFBUV1tQwHeUhhKzdubW89Z8dvyEoIASarmGaJvF4nDZt8rFtS9YwW2Dcbl4Ur0Zd+3td3BqxqqlUVVWhKiqxnJjXshSiZciuEAJhC1RVRVFVysvLiMVihEIhbFs0wY+bZv2JqqgIpH+rquLk57cBAbZYR6tIUbBti+23355wWN8k5UYdpVFWTmFBgVwzUw9KOm2KiooK2rYtQpF5s0WiKGBZsHZtCUWFRV5Tc1Mv8qMRSsPNpl5Lw6rf/uZCCDANg0g0xAcfTOXUU0+lbdu2JJPJOl1Rmx8FIWx0XUdRFOLxOHl5eZim6XSv2JkOAqBBhSGpyUeJ6gSarhGLxrCF7RXUWSsKjW2RNtZeA7gyqSgqqqpQXl5OLBojFA41uSutKXbXF7nVEWiOMm7TJh+g3u4pBVBUlXi8ipkzZ9GxYzsMw0LT5FjIxqJWVAgoLSujsLCwVksjsyhQ1qwpcZRGMaqqYNsyA/prGrVKwkzqhr822dw0EeEETtiCeHWcgvwCFFXxBLpFFHBe5qipyZSVlVFYUIhlWxu3D3U9EAjS6TTt27fnkUce5dFHH+G9996jvLycaDTqyYHL5q7RCyHQNZ20kSYej5PfJl/W2pzI3hQFQWtBFlhS2Nx4WWceEXgtDUVRyMnJxbatTFu1cAvFdQl1o97dSFwFpqgKqqqun9Jw8mij7G4gNUpOobKykvx8V2nUjgtFkWVuOBzm+++/5/TTT+fDDz9kq622Ih6Po2t6LfvNgSxPa8opr2xSnDKrsBBN07BtWXHIREkkUqK8vJzitsVouuo5Fs6yfcXtosgSYBqRWbO5aTJCvseyLaoqq3wDtjWB3Wz44gvcmoQMd3l5OcXFxViWozRaEEIIjLRBTm6Up59+lieffJJp06auV//rpsS2obq6mry8nMxbARtIKmWg6zqatuGy6pYdzYn/mZWVcWKxWIuWVde/FRVV5OfnZd72sG05W2327DmMGjWK999/ny5dOpFMGt6sq+bGXwl0yybbsllbupbCwkJCuo5wyonMCqPsniqvoG2x7J7KhlhHQwN/me1Ycsvx+uyvD4oCliWoqqqioKANtuXsVbO5lUYGNcoDKipa7kC4EGCkZffUxImTePSRR/l4+jSqq5NZWhqu52tSVEFZj/RtugsPp6mfSqdJJBLk5+fLmqeiZO8+WW+hyHyW/zmZ91wy31WfvY2PoihYVk23hjuzqL54csc0NE2loqISy7bIzc2V7tcxhuW+w+27r8+ubct94mTlccPGE9wCTNU0ysvLiEajhMMROba1IQ/eSLgtjYqKCtq0aYOqal6l0sVNr0gkxDfffMeoUaP4aNpHdOzUHtOwZUV+I+KPNmFDaanTPbUOXaW6id1Qg0C4/zJN7a+17eMUoo009dkVvs3KTNPCMCwUVQbSuVzHjWfWdW9DjftsHD/aUlCkydK0y3S/OQ3UyuTud03TUFXQdVUaTUXTFGlUVa6T0FRU91oTjPfM9TCarjpz3BU0VZPP1FU0Xfqrjv0s72+MWedzVLWWkWtGatvRszxjUxpNVQiHZWtBQcaV7sRTpl33uhu3AmjTpg2RSAhVkemsa5pnNE1D1zUURSUaDRMKaaBIZa7pKqGQvB/S5SeO0giFNDRNl/ZUzVtroznPdJ/rf1cto2uoqnyGlD9XTp24d57ZGCPjI8s7mtm44Qrp0m+KImVDq2NH9RR8OBwmkUh6Y3SuMt5oJgMB2EJgO+VWZvHlospKUr3j+eBoI0Wp2YmylslclJKxUEXNtL8OU69d73my/aKqbi2o9nuzmvW91xjjuvf9BEdx2FnGWjLdb07jeQgUxSkxsiC8f9L65qrQua8VbrOXGr8ozVEZqyf8UDv8fqMoYFoWhmHWm8EycStArrHtms9sCAGmYUtjOp+OMQwL08hwqCAnXjgFgGma2I30m+aMfgpBTU0zQ2YUBadC5LhxurKEkD0Blmlj22DbglBIIxQKYVkCVZUKRCBr39JRRsGUEb/+96pO+eAmuuyTly0XRVVQlcYZT1Yy39HMRvq3plvHlVvVV46qqncbnApb5lhi5nOb1WRQU9mVfqgvrztR2DipyhT4xmQUIRr3+HU90+95IQSWaWKaFpoKlmVjpE0pzE43UDptyHnOGf2q6ZSBbctWlWlaWLbtU0i1jW0LLMvGtgV2Rq5LJJJYpnTr+lfgKjjnhc5YkMxANYlQTzpsJlzP1zNDxsXxtPBaU5kWNj7uK92WXLOzroTxhb8WAkIhjXBYx0hL2cp8TmZ+SacNUqk0qWSaVCpNOp0m7bi1LKcm5DmWMqOHVGl059MxoZCGHlLrKBy3pqrrCuGI7hTYte34/WSaFqYpSKVTGGmDP/5YzdKlyzBNi2QyRTpleIrRk2fHnytX/kFlRZWXLoqqYJgGqVSK6uqkJ/uWZaMqqtcdJpBxta5oz458scgsVzILxPrM5kBIuYV1+0GIpkwd3khkyF82HKXRzD71cnjtn1lx49IpqGspCEfQvfh2ZlCFIzqhsIYtZDdKOCLnNKuatBuJhGRNyfcsRYFINOQ022Vm13UVw7BIVKekSaQwDFlNc7sq3G4Ht7BUFMjJiaKHVISQtQXTtDxloypy5bKiKIRCIa+rp8YjNYqp1eBLwHWm5UbEjS7hDsxtSrJkJOGU77/88itr1pR4suVZ88ms30QiIaLRMNFYWH5Gw0QiIXRdylmtoCmQTpn89ttKfv99FatWreb331fx+2+r+O03+blixe91aqduxaWkpJQXX3yZP/9ci6qCZdYERPH5UeYFhXbt2pKTG+X119/g9ttvJxTWiMUiRKIhp8tLynskEvJq7GeecSZr/lzj5ZeHHnqIq666inHjxnH99dczYcIENFV2ldnCrlPUrK88KS1rMuK68U0mquNppSa9WsS4TCO8oKTTpigvl+s0/HNz/biFZa0xBAfFJ+eZ93DdUlNYrot0yiQcqT3FzH03zsrKqsoqEskEqVSKbt22YuXKP5g7Zy7/+Mc/EM588w+nfsiOO+5IcbtiQiHNe+706Z8xfPhwFAW+++47bNtm8OBBtd7n8ueataSNNNXxaoqKiihuV4RhWKTTBpMmPcdee+1Fjx7dqa5OEg6HUVXVacXYWJaNrmssX76cFStWsMP2O1BQWCAHD1XNO0RKVWsy7qZGCEin5ara5yY+z/iHx/PJJx+TShlEIqFa9hCu4NekR0NpmY31cePh+KG6OolpmOQX1D8bBV+B2FQy/Vgr/LYjx4Bly1lmY8fex1NPPcUZZ5zBcccdR0FBm1ruDcOS4wO6QmlpOWPHjqW6uppUSq7CLykpoV27duTm5nLsMcey407be+t6VBW++eY7HnrwIYRvcaM7uJyoTtAmvw33jr2XcCTsKa3q6iQ5OVHeevNtTj75ZD77/DP69u1daxW1OzkjlTL4+OOPUN1prLEc3n57MosXL+b666/3pmCrqkrPnj3ZcsstePXVN/jqqxnk5+czbtw4Dj/8CNq3b88ugwdz5VVX8o+9/sGoE0dxxRVXEIlEePfdt2viwhkUd7uXmipPti3QNIWKiirC4QjRaKhFTjRRnPyiKFBaWk4sFpNx78iSH8uSYZo3bz4jR47kyy+/pHPnjhiGtdFmT7n4482yBGudxdOhkBwCyPQr/g0Ls9wDt0blNkuddRtuRnI/bV+r2rvvfredjg9fc9i17P527Wu6TlVVNWVlFaTTssbvD5RpWoTCIfLy8hhz7RhmzfqGjh07csWVV7Jw0UJCIY0PPviAm266CYFAUzWSiTThiM6dd9zNmGuvxbJMysvLuf/++xkzZgzjxz/CvWPHcc01Yzj33PN5883JALz9ztvcecedPP7447z3/vvE4wlCIY3/3nQTY8aM4bjjjmPu3Hnk5ESdlaqyOyAU0pyao0oymWTcuHHMXzAfVZU1OlWTLY/6FHRAC0fIfKAqsqV59FFHc/nlV3DvvfdyySWXeC1V05S1/1BIQ9MVbBti0RiVlZUkk0lUVSUWi9GjRw9++eUXbrvtFlb9sQqc7iVXPrp06cIpp57CiSeeyHHHHceoUaMYPXo0o08czYUXXsgZZ5xBOBL2dkYQQrZ0AaZ9NI29/rEXffv2JpU0nAJbPldOA4dVq1YxatSJvPnmm7z//vu8/fZkZs6cSUlJCc9Pep4333yLd955hzPOOIOZM2cC0KPHNkycOJEFCxbw9NNPU1CQz/PPP09BYQE5OTkcdfRRDB48iLy8PK644goAkkkDTdOc99dX2gS0BhosutxC2y3sFd81RXFqYEJqDeFM47QsmXEsyyJtpBHOmIBl2ZimhUA2ldNpE8MwSacNAExTCvYpp5zKtGkfAlAdTzp74kAopPPtt98yc+ZMVv2xijPOOIP333ufNm3yOO+883j99Tc59dRT2XKrLfnss8/4cd6PRGNhHnxwPK++9ioTnpxAOKxTVFRAOpXm0EMPZebMmVRUVtCtWzfy8/OJRqJUVydp06YNffr2oU+fPrRrV4yu61x66RXMnDWTX3/9lWOOPoajjzqKN998m1BYY9XK1Xz99bd8+cVXzJr5NbNnz2HmVzNZu3YtixYu4pdfVvDNN7OZNesbvvzyK35e+kut+A1oHSiqlHcBVFcn6NylI8ceexTTp0/npJNOAiFr1LqusmLF79x77/2sWPG7M4gLd999J+PG3cvYsXdz++23cdNN/0f37t05/vhR/POf+5BMpmt1Z3bu3JHddhvKiD13Z88992CvvUaw114jGLHn7gwZOpiddx4ou1ydlpBl2USjYcrLK5kx4yuGDBkCQCgcIhTSMQzTFxqwLJNIJMyNN97IpZdeyh133MEWW3SlT+8+3P/AfYwZcy133HEH/fv3d8YtYKedduCGG26g6xZd+ec/92H48OH06tWT3XcfRnV1NWWlZTz55DOE9BB77rkH6ZRJNBqSU6ShptYY0CqpV2m4LQDb7ct3r+M0K3xNSk2TsxIUZ9xAOIPImib7RDVdtullP79GOm2i6QqRiE44rNfqDkmnDWbMmIFpSuHOyY0SjYZJp9NomsL3s7/n6quuZvSJozn++ONZvGQxRx11FCNHjmTevJ8468yz2HXXXXl+0vN89NFHlJdX8sUXX/Dggw/y6quvccXlV/Hvfx/FRx9/xEsvvsSff/7J8ccfz+mnn8rNN/+XPUbsQWVlJR9//DF/rPqDJUuW8MLzL7Dzzjvz/KRJnHPOuXz66acMGz6M3ffYnaOPOoozTj+LhYsWct9993HP2HsYfdJoTjnlFF559RVyc3N5/Y3XGTXqBEYecAA3/t+NXHXVVXw5YwYgt0YJaD0oimzxahqcesqpbLHFltx77ziKi9sxfPhu6CGNkpISAKZ8MIUHH3yAcFh2CZmmRTyeIJk0WPbzcqqqqnn6qWe59957OO/c87xWgNtKmThxEiNG7MVBBx3KPvv8k/33H8mIEXuxzz7/ZOTIg/jHP/ZhxB57ceCBB/PFFzNQVEilUgDMnTuXP/9cw5FHHgnA8l+WM3/+AtklZMu8CNAmrw3hcJjc3Fzat2uPpml8//1svvn2G77/fi5bbNHFa/VUlFegKDDn+x8IhyO8/sbrvP32u9x77720bduWRCKFpmlUJxI89eSTHHTwQQBUVVXJByhO+RHQqvHGNIrbFtWauugKsNsc92ZHKCqq4igBp+ZlOysaE4k0H344leHDh1NYmM8vy37l22+/Zfjuw2nfvpilS5cxe/b3HHHEoQB8/vmXTJ06lX79+nHQQQeRkxPFNAX9d9qJCy68AEVRmDtnLv/6978YPnw4qgo33HAjyUSS/5zzH1577TW6d+9OZWUltm3TqWMnDNMgL68Nn0yfTrw6zvXXX080Gua1197gkksu4cUXX6S0tJS7776bPffckx132JE77ryTDh3as+LXFQwbNoxrrr2G7777jh9//JFYLEY8Xk3Pnj1YvXo1M2bMwLZtysrKKC4u5oYbbuCdt99h5IEjadu2LZqmcPfdY5nx5QyemPCEt3J54sRJ3H777cye/V2t1ptbQ9zULXYRjGlkJdOPtcLvpJNt21iWxerVa3jjjde55ppr2G+//XjyySeJxaIoilyxPHToUM4840zOv+Bcr98a3w6t5WWV7DFiD4466iiuueYqqqpqr3RfvGgpP/z4A/lt8qlOVNO2qC3XXnsttrAZP348S5Ys8RY59tu2H+3aFZNOy/S74oqrWLr0Z1566XkAHn74UR595FE+/fRT9FAIRZHdpAsXLuaf//wns2bNon37Yv79r6Po0LEDu+22G2PHjuWLL74gHNb597+P4sgjj+Sggw7i7LPPZsGCBXTs2JF4PE40GmXZsmXsvffevPXmWzzz7DPMmzePSZMm8eKLL9K+fTE4vQsoch+xYEyjhlY7plEfbt7zz4t2FYb7QLcmkkomueiii3n6qacBePKpJzniX4cx5YMpANx0003ccccdAJxzznnstddefPLJJ1x88cXsueeeLFnyM6lUEtMyufjii5kwYQLzF8znX0f8i4ceegjbhvbt2zNg4ABmzpzJe++9x9tvv8Onn37KnDlzOPvssznwwAN4++3JdOrciT69+xCNhlm2bDmnnHIqjzz8COXlFaxevZqdd96ZeFWc0rJSHnvsUdq2bUtR2yL+d/ut6LruDTiWlJSw++7D6dKlCxUVFYzYYwR77LEHBx10ELsP353nn3+eYcOH0b59sVd7O+mkk5j9/WzmzZvnReC4cfdz0kknofjm0eMWSlkSJqAF4szeAwVd19lyyy6ce+5/+P77ORx11FEYhuFlwuOOO55tttmG8y84FyFq1jMYaYtoNExFRRWHHnYoP/7wI5FIBGFDLBar9bqevbbhsMMO4R9778lBB41kt2FD6bplV4bsMoS+fXtz4IEHsPvuw9hjhKyUmaZFSA+RShlMnz6dfx1xBMlkmoqKKs4883Qi0QhXXX0VoZAcRHcJh8K0b1/MvWPHMfv72Zx//vmccMJxbL/9DhxwwAFUVsYJhUKUl5WTmxvjkUce4cEHH+T000/nsssu48ILL+LRRx/lvvvG0qFDB9asXsMZZ5xGfn4+Y8eOBWfgXVY8Mub+BrQ+0mlTrFmzVtiWqI0tjW0LYVlCWKYQpmELy5LXbLu29WQiLYQQYtSo0eKww/4l1q4tE4cccpgAxPnnXySEEKJPn35iwoSnxGeffiE0LSSmTv1IOraF6NGjl7jhhhuFEEK0b99J7LffSO/Zp5xymmjXroOIxxOiqirhXffz8suviRNOOFG89NIrta7Pnj1HHHjgwSIWzRUL5i8SN998q7jh+hvFRRdeIm677Xax7777CSGEuPXW/4n/nH2uEEKIivIq8fLLr4rLL79SHHnk0eLrr78VAwfuLAYNHCz69t1W7L77CNG58xZi50G7iN12HS7OPuscIYQQhmF58XLzzbeKYcN2F0II8cQTT4revfuKVStXCyGESKdNIURNPG4OY1lCJBIpIYQQE5+dJHbffYQQQohkUqaji20LYTtpbllCmKb8zHxeY8wG4biPxxOivKwy824dMt/dWJOJbfvCbwphmrZIp00vvxiG/OK6Xblytdhzz3+I/fc/UPz220ohhIwz+SktJZNpsfPOu4j+/QeJ5557XnTrto046aRT6rzfsoSIx5MiHk8I07TFr7/+Lvr12068+eZkIYRMPyMtZc62haiOJ4UQQrz99ruiW7ceoqKiSiSTaZFKSQ8sXrRU9O2zrViwYJH3jt9+Wym6dO4qLrnkctGrVx/x+edfCuHIaDptissuu0Lst99Iseuuw8Tzk14UQgjx6aefiz59thUHHniwOP/8i8RRRx0jtttuR7FgwSJx0IGHiCcef1IIIcSDD44Xxx57vBBO/KRShjAMSxiGJUxTliVNlSc3DsvLK0XCKXOa4n5TGTfMQgixdm2Zl9dcOfbjhunHH38SW2/dXfz++yohnDTIfG5zm0x/rP7jT698yuZXIYSov6Xha1F4rQq3GuVv+ruzn5x7gwcP5pdly1i8aDErVqzg6KOPZe7cOXz//VzWrFnDsGHD+Pqbr7Esg4kTn+Wss/7D6Wecydq1a5k/fz4A4VCI44471nvFiBEj+PPP1fyx6g8WLVrI1KnTeO/dD5j81jtMmfIhZ511DmeffRZDhw6lW7fufPrpF0ye/A7ffjMb27a5/rrr2Xa77Vi8ZDHxeJxu3btRVl7GwIEDiUQiLF2yDMMwqaysBOTJYO3atWfAgAHsvPPOdOrYiQ4dOvDCiy9w3rnnMWHCBC6++GLuvOtO7rr7Ljp06CDd6aqzUMrm/PPOp23bthx33Ak8+uijXHXVVXTs1B7LkitlPdazGyVg86AoitxKw8k57qD12pJSxo69jxEj9qBPnz489tijdOnSyRmfkImsaQozvpzJ0KG7kp+fz9SpUzj22KOZOmUqixYt4sgjj/bGM1IpA1WFnJwIOTlRNE3htttuJRaLseeee1JVVU00GkYPqV73TiwnAk6r9uijjyYnlsNvv/3G11/PYtKkF3hiwhPMXzCPp5+WPQGm6UwPD4UYMKA/E5+dyG67DZXb9DjjjzfffDO33HIzoVAY05LjjPn5+eyzz95MnDiRe++9m6effpodd9yBwsIiTNP0Zm9169aN8vJyksm0bGE3djfagBZN/UrDoaZ7ymecQW95Q353+9722GMP4tVxXn3tVYqKijj5pJP5888/mTBhAgMHDqRXrx6sWbOGtm3bUZBfQNu2benatStXX301Jxx/AqZpk5ObQzRac3pYXl4eoFBaVsaHH37Iq6++ytQPP+Td997l/ffeZ/HiRXTs2JHKykqeeOJxXnzxBd544w3emvwWAwbsxOBdBnkHtqxcuZKBAwdSVVWFrofYfvsd+Obbb4hEwt5KWlVR+frrWXz44Ye89957zPtpHqZp0rdPX6659hp2330Prr76ao488kiOOOJf3uBeOm2Cs+Awr00OJ590MpMmTaRt27acdNKJjp20NxssyD4tiMYob2emoCv7M2bM5Pb/3cm//nUk222/HePHj+fWW29l/PgH6dihI7YNuibPf1izpoSzzvwP++67L/vt908+/HAKxcVFJBIpevTsziuvvMK8eT+y1157kUjIwWzLFKRTJvPnL+S4Y0/g1Vdf5amnnqJNm1x0vWY9k2VJz7/88mvstutwvvziCyY++yydu3Rmj9334IorruC1114jFArzf//3X557bhKzZ89F11WqKitp0yaP448/lu132B7DsLyFrzhThgcO7E+7dsWkktJfuq6TSCSYM2cO6bTJvHk/gYCcnBiWbfHjvB8ZMWIvRo0axbbbbks0GkYI6W6TL8wMaHYaVBpeK6Pmow5un206bbLDDjvQtm1bHh7/MFtssQVDhg6lXbv23Hfffey6664A9NimB1WVVVx44YXccst/ueqqq/jxxx9ZsWIFui5XU89wZhcBfPrJp0SjMfr06cNJJ53EPfeM5Y7b/8fdd9/NnXfdzmGHHcauu+7KpZdcyk033cTYe8by0EMPcf31Y4jHZd+toigsXbqUb775hh122I5EdYJUKkn37t0oL68AIBKRNTVVU1m6dCknnDCKgw46iK+++oqcnBxeevklRo8ezWOPPcaxxx7LmDHX8d//3uTN9AqH5Up1yxTcP+5Brr7mGm666WaSyRS77TacX3/9jVgsQjQaxt3Vvd5IDdi0NDIdNE3xWgOffPIpL7z4AltuuSWPPfY4c+fO5YgjDgPcXQHAcnY5SKVS/L7yd95//31uu+0WkkmDeFWCaCRCKmXQvn17Xn/9ddq3b09JSQmRSAhNV1i0eBGjRo3i+znfM/mtyWy//bZUlFcRjYbrbA3StesW7PWPvXjkkUcY//B4Pv/sc+b+MJfXX3+dRx5+hBtuGMN1113D0CFD+Oormb/Kysr4/fffKS0t92Z9mc7K8TVr1nLvveO49Zb/8evyX8kvkGdCGGmDadOmccbpZzBixAiOPPLfTJ48WVaIEkn69duWiRMnMn36dK668ipwZkWu387IAS2NBpWG25JQ3O6qdWQuIeQityFDhlJaVsLQoUMpLGxD7169EMJi3332BeCf+/2TIUOHsNuw3bjyyqsZMWIEb735Fv223ZY1q0uorKzk3nvv5YwzzuKCCy7iqaee4s477yQ3N4ppmkQiOqZle7N88vLyMAxD7sejy8zmNpHd5fsKUFpaytlnnw2Apmvous4RRxzB0UcfRVlZGVWVcmqgbdmYhsnyX35hzZo1zklWKoWFheTk5JCXlwsodO3alTZt8r11KQsXLuHZZyfxr3//i6effppbbrmZa6+9mhdffIH+/fuz//77c/nlV/L1rG9JO/tlBbQs3BlirgFfpcmZEaNpcr+nyy+/hG++mcXYsXdz0EEHoKoqyWQay6rZ8E9R5MK+rl278Oabr7PbsKFO15NCLCeGLSAUCmGaJttssw2vvvoyXbp0wTLlXlTbbdeP5557jjlz5jBwUH8Mw/JmjrkTUDRNzkIaOnQXbr75Jo46+t8ceOAB9Ordg6KiAoqLiygozMc0bVIpg+cmPcuZZ54OQJctunDUkUdRVFRAYUGhPA3RCa/csTZEZVUlJ59yMv/4xz8AyM3LlYcFTfuQzz77jM8//5xLLr2EiooKdt1tV7p27UrXrl3o3as3eW3ysC0ZRpQNmNYW0GJoWGn4qK+QUxTZvHdPmTr1lFO4/fY7OfRQWes67rjjuPzyK+nfvz8A7dq159FHH+O4447j22++pWPHjrz40ovssccwFFXh6quv5vnnn6eiooKlS5dy7333cs45Z2OagnA47DShVR4e/ygHH3wY48ePp0vnLuCsKseXodw+1FV/rGLEiBGcddYZpFImCxYsoKSkhPLyci6++GI++eQTdtxpR3DGNJb/upz33nuP6R9PRwjBH3/8QXl5OQDxeJz27dvx2muv8uijj7D1Vlvz228rueCC87n33rHsPnx3Jr89mX322Yfq6iRt2xby4IP3c+edd7Fo0SJOPPFE3n7H2VohXXuxVUDrQFFk95FhyM3+bEvuahqJhGtW+zvlo6rI2UOmswNsOBxC13U5JdOx6h5laxiWb4NLqQx69erhzb6qNR7mw1Votu3bVNJXPivO+EskInedFY69rbfekvEPPwiAaclNCTVnr7Xc3Fz+c85Z3HLLfzn77DMpLCzEMCx69tyGq6++kg4dOmDbNh07tuf668fQrdtWXHPNNey1554kk2k0XSMUqjnMJ9AXfw3qXafRZISUTOHbKyoTy5KFeTptEgrV7L7pZjL/3jiZmKY8nyIej5Obm0sopPHpp5/z9ayvaVvcluHDh7PNNt29edx+d7qu8uYbk+k/oD9du3ZFVeGDD6bSq1cvCgoKeXvyZDp36czQoUO9efJvvPEWAwcORNd1dF3n3XfeZdDOg9B1naLCIuLVcX766ScqKyvZd999URSF7779jl133ZVYToTy8kpM06S4uAghIJlMEYvJ7q/vvvueaDRKv359NslBK9kQwTqNjY+7DjZLuL24zLwBcvtw93AkPZuNDceNH7ngsJrCwjZUVsTRdJ2cnIjc5ty3V1oqlfLyRjKZRgjhybNlyaODI+EIaSONqqqEw3ITUXC3EnLCJK8E6zR8tLZ1Gs2nNHwIAfF4Nbk5OSiq3FbBNE1CoTCKoqBp0oO2bXvjAZFIREa07eyLoyreTAzbllsj2BaUlpXStqgIW9RWDu573VaPbArXzbSugK1LyPwLsZqKYdik0ym5z1BVpbeBnRBS4FOpFDk5cpDfsoS3Z9CmJlAamxd/vPpbBFCTUYUj4/6KVXPi5ReH8vJKFEUhPz/Piz///Uz768IdnHfDVjuIgdLw09qUxkYQRemRvLwc74W6rhGNRFBVxTkDQwqNrmuEw2EiYUdhCDkzSw/J065CoTCaphEOydaHe4CLLWRh6y5cqqqq9jaKq7UTr6+gi8cTzlRC+buqSv42TZt4PEF1dZJ02nQEUD47nTZJJuVsp2QyjWnYpJIGhmGRShnE40nv3aZpUx1PYpoG0aicReKOdQiBczaHTSgUIh6X73L7ogP+ngjvX8Z1TzkrsvD1zrHItLnhCOE7tMnOso21D8XpZnMRIsv5Ks41uRm6VAz+gidLGRTQytgoSsMV8kwUZ8aQotRMvPOEKqOprmQ5/cq751yIRMK0aZNHbm4OunNkYl27klgsJnf5dPyVE4vJYyIVlWg0SiQSldMYnRpgKBRC03TC4TDhcJiQHkJR5RkZmioHCGPRKLFYDpqmoSgK4UgYXZe1dCWj6iMnCcgjJ2Mx+a6m1NwC/nooiiOgGUbx1bzd/OG/1uzUyng1H3XeJ+T4jJ86vRNZwiNxNysMaO1kJvkGIzK6hLxaiE9ivMzifK+VebKgKK5SkRa8Gpq/hlOPWz+eqsqoTck6Ue3rta45tb5sc8z9V+R9OcUyU2ngj4t11OYC/h64ct9YszFY5/Pru+a77rrLdF/rmYGs/+VodqWRKezNZfwCm02eAwICAgI2Ps2uNDYKQW0lICAgoEXQOpRGQMBfCacSlNmaboxpvdTuyA1ooTQiaQKlERCwGWhE3vyLIXdok/oy6DposTQiaVqH0sgy0NYoGhEBAQGbnMbK72bAm8DRzHlHrstwW0w1A5QtOCr+nijev3pplNJw541vTuP6Q0GBxm72l3G/mfNBQMD6IVquLGab9bchCE9hZBjnZkuNh78jbto3JAL1Ko1aBfZmNjWKQ25HYNvC8WSGp314bpwIUJw9gDL7iBtrMhVQQNPJrAg0xqwrjVsKrng02rgytR5kxk9zGRd336v1xf88N8+51/35GX/+qvWEgE1JbTmQi6frvy9NvUqjFnWkftMaxecRV/ianOmyPLdJJmDTI2p0RovWHZmy0hizvmyMiPBHcnM8332GE1bFWairOEZ1z+MJKmQtB2ctGu4q/ox7fhqnNFoMzqpSpW5AAv6C+GQ3KFccNkZE+J/pfN+g7LUx/BiwcfHSLEvKZ6RnK1MaTu0kMxQBf02yyG/ApiHIYX8zvLyWJeUb29II+hsDAgICAjKpV2m4CO/f5mMzvz4gICAgwEF1tUJ9BbOiOANYWWYUbSpTM+tJtnvq82vA+hHE59+c1igArcnPrcmvjUB1R5ZbdDdUi/Zc42mpwWip/vLzF8t3LQtXAFqDILgEft1I+HJaPf7O3tJoaTnU7x/3u3OY0qb0qxtL7mu91zt+kB9OTGfxl2s3y63NSv3tzM2MT2j98lvHt1nmkme71hjTFHdeujfRnec2y/WGzPq4WZc7eV0GRAhREyZf9LYoXI+1WA9moTX51ZfTHLGoozxUW9jYtvAEB+paaknYwkYIWwo9GSc3bWQURYEs3Wfycs1pH0IIx58yTqUdFUWRces8psUgbHn0bosjS2azbZn++IRaZBFZvzg3BXfdaKPIfGkjURw/r48fm+Q/H/W684VByq20uD5+2xTYTtrLzxbqyQxkGVt//nLLCdt27G2GYAmnnNJUtbYuyIIzEJ7dkr9GsrmNVyNyvep8uvcabVy3TTEu/u8+aqwK6R/3og+ZNx2t4QYj8z2O8Ye5KaZJ7nxk/KyDcP95X3w3Gmuaat91gy9c3oXa9xCyUKwlK0h5aarBUfqNMbbt7E6Q8f6GjO0LX+a9+gzuZxP85zf1urNx7nsx6sV/rctNwPVvc5psx8rWIoubZjPr8Xwv3Vy3db/WSy07WZ7dbCbjZYqzPZOUjbry5xpV0zR0XUfT6labnHHnWg/OinPfjSTPXWNwPLWud/nDqOkamqo6K0sVVLWmLG6MEc455JnX12Vc/9U52tKHquAc56rIs9B1DU3TvfuaJs9H19xVsc7zMg3eMbc172zIuP5skjvfxAJdlzKQDQUnbRxTa/QrS1zVZ7w4zHKvPiOQCe8KMyBl1fGr+zxXdhTHvjxDviZ8jUIAyLRrMk11IqQbZR3ylImrlFQ1y4rdepE7KCiNDJeqqlIO3BXcDTupwc3HSLeZaVmvcaOjATeKI9uqKiNN1/Xa8ZDFTR3jWm3gXZmmVv7Pcj+roSb+dF1Hd8qCbHGqOIKg67oTLv/Nho2bN5rkP19Z6H+fpqpOz0ON8lB8/hCAaqQNUqkU6bTpnZ+diZt56zXOfcX5zNRM6zSOf1yF4z4r045LOpUmbRiYpoVl2TJwbku1EcZ7V1OMD39BpTjdTIoTmbZtY1kWpmmRSqUwjLTnLvNxwvFHpsH/ux47mcZ7R1PdOW7TqTSpZKrmQdTcc5/l+ct3w3tGY4zznKa6ASd9HVKpFOlUCiHAsqRw2076u2EHBcsSCKcV0BgjACEEttV4N57bevLNuhCuvxuJm6/tJoVLSDfrCJdsHUt7pmGSSqWwLIFp2V7t3rkt3awDxX1sE/KjS0NyYdsC25J+tG1IplK1u3yyuKljGvmuOsZx01R3lmVjmYJUKkUqLfOXF5fUPNu2LXBkO5VK1W75ZXlupnFlo6n+g5oWnPdKRXHyuHvByfG+S8qaNSWioqKC4rbFKKriJYTf47Wbr+vCFZvmR0HBFjYVFRUUFhaiKKqvb3vjvLOpCCEzpq7r2LZNeUU57dt3wLYtTMOsSV0nPPWxSQamBaTTaYraFvH444/z8MMPM2vWLEpKSsjJycGypCDjxa+smghHSTY9rZtq36XGnaqqJJNJTMOkqG0RpmkCckymVpwJ6Wd5ZX3e2TQaX/PfcJpb1t18pes6paWlhEIh8vPzsS3bk9cmvdNRRE2jYdmQu+OqWJZJNBqldG0pekgnGo3W8mtLwPWrcOJ1bclaYrEY4UjEK7NcVEXFtCza5OXx7XffMnLkSD777DO6detGVVUcXddq2d8YKIqCsAWarlFaWkpOTo5scTr1jNr5XUExDEuUl5dT3LaoRUV8NoSA0tJyiooKZO1+fTYu3IgIp0akaQqWBRUV0q/uvZbkVwDTtNF1leeee56Hxz/M9E8+wjAsQqGNL6jrSyKRwjAM8vPzMm8FbCBlZRWoqtqi49a2QNWgoqKKaDRKOJy9W7UlUVpaTk5ODpFIKPMWIGv7igo/zVvAyANHMmPGDDp2bI9lybJkU1JeVklBYZvMy7VQLUt281hOk9dtqqy3cZrdzW2ELZvmtu10S1nu77p2N5uxBLbTZWbbVk3zWbjdCjKOGqhUNU86NGRsvNaEbdtYjl/da3XstwAj/bfumSgurps6aRSYWkbKgYxcf9zavm6LlmBsp8vLcrpybNuWLQzAsuqGa3Mb4XSfZvo1M1xATd5zyjY3D7rd7xvT1PKPLf3gRLFHpp9V2ZRymtiZ/fUtzvgPcnF/Z9rZfAbfATPy06klOPfc+G2wRZfl2RvHSI8oyHjE19VS1+7mN56/GozAum4Dsy7jT/MWnP4KPv/VTAjItNdyTI1fvaIgw4533wtTtt+bxrjxmzlBI9NeE+ZvNA7h/WtGhHykcL84r2h63+lGxAm417suMv3XgvyakU4tKh7rw+fFRvtWCknAOvDLQc2FFhxvPv+1Crmlnvj1X8pyTVLvjY2HrwVUH82uNAICAgIC/roESiMgICAgoNEESiMgICAgoNEESiMgICAgoNEESiMgICAgoNEESuNvTM0kiYansAb8zQhEIqAeAqXxN6amXGhgjl3A349AJALqofUpDWcBihTqoDq0IbjlglxMFMTl3xZf0ntrHwJxCKiH1qc0HGn2hDuoEW0w/hXh68Lb+iCI878WbnqKmq3HGyEOAX9TWp/SEO4pc05BF0j3BrNOHZCxT45zqc5+NI0xzUVjklyIoDHqR1FkVGRuCeFtIQEovjM3mjG5Av5itDqlIYW5cTXjgMah+vbxyUR4/wJaJf4TkbMnce3rQe9UQAO0OqUhkZLtnl/RWhGi9iEozV0jbzacEkQ4u422SD8GZKeppX9T7Qf87Wh1SkM2sX2S3dqFvDX436ckWoN3AzaAoEIQ0ACtTmkEbF6CMiUg4O9NoDQCAgICAhpNoDQCAgICAhpNoDQCAgICAhpNoDQCAgICAhpNoDQCAgJqCKbHBTRAoDQCAgJqCKbHBTRA61MaivcvICCgIZqoBOrbGSAgwKX1KQ1nCxEhhFQeTcwUAX9v/Hst/S1kR2laHcvdf+rvEDUB60crVBrCURhBoyNgA2mFspO55cy6DJlb0zjX1oWbtwIC6qPVKQ2ZCYRsRrfCTB+wCXHKv8zdXOu71uLxKYPGmEwlIkSDOgNhSxutKl4CNimtTmnUkuWGckDA3xtHWGrVvl0yC9PM+xuA/zleIZ+J7522JbAs2zOmaWGaVs0105YbRSIfKJzWtkBuYauoMqy1FKGCvC8cu47CkO8DyxKYpo1pCkzTAsCyLGzblnZ8G2l6Xvb99r5nC1vAX5pWpzQkbr9rILEB64csgGtMcykMv0i6z3QL/3TaIFGdJFGdpCoeJ5FIkk6nUVUFXVc9EwpphEJazbWQiqaBqoKmK2ia4n0C2E7rwBYCW8hPoJY9VZXuVRVUTd6Tz1cIhTQAcnJy0HT5PZlMUllZRTxeTSKRIp0yMQzTUzBB1vv7oqRShigvL6e4uBjn0K4Nwqt9NGfz1nmebQvKSssoLCpEURSEEKi+g2M2K05mtW0bTdOwLZvyinKKi4sAWbNT1drngNRXUG2KrgEhIJ02iUR0Jj33AuMfHs/06R+RShlEIqFa9tz4d2uX69utsz5uPBw/xOMJTMOkoLBNpg3wxanf35ndUpn3hV1zHyW7u8agKGAYFqGQhhBSXtNpAxDouu4VzpkkE2l+X7mSUEgHoKysjIqKSpYsWYywBWkjzZIlS0gkEqiKimVb6LrOsmXLSCaT6LqObdmomuq1KnJyYnTs0BFFUVA1DWHbaLpGPF5NQUEB/fr1pXfvPnTs2AEE5OTmkE6nKSwsJC83Dz1UtzAQAlLJNLawUVWNaLRGTjY2rtyZho0eUikvqyQSjRCNhrHtpqfVxkZRZGtNVWFtSRmxnBixWCRr2WiaAl1X+PHHnxg5ciQzZsygc+eOGIaF7ijxjUVmeVRWWk5BYcE6dUGgNJqLQGk0yPq48VgfpYF0535VXD94YZEPFY7WUNzDqDKUhhtm93mubCveP2nHsmxMw8Q0TXJyc+rkp1UrV7N6zRqqKispLStl+vTpVFVWseK3FSxcuJAe2/SgOpFgbUkJVfEq2rdrT7t27SgtK2XnnXcmJycHy7RQNflgXdPp07cP+fn5lJeXE41GMU1Z0Bhpg5/m/4RlWZimiaKo6LpGeXk5ixctJjc3l6U/L0UIwZrVa+jVqxepdIri4mIikQhbb7U1222/HcXF7ejYsSNdu3aluG1bcvNitcIkbEgkk4RCITRVQ80o4zLjTqynHARKY+OQWR4FSmNTEiiNBlkfNx5NURrueEGWdyrO/An3vnRTkxAKiie+qua8V96QYXcuCWeMwTJNBKJWnLl88cUMvv32Wz7//HOq49VUVFawZs0aunXrhqZpVFZW0qdPH7bddlu23HJLunTuQiKZYIcddiASiRCNRr0uqI2BbUNlRSVLf15KdXU10UiUhQsXsmrVKr759ht+/PFHIpEIiqKiqgpr166le7fu9O3Xl7323Ivu3buzTY9tyMmJes80DRvDNAiFQqiqiqrUUxY0sYwIlMbGIbM8CpTGpiRQGg2yPm48HD80pDTwDfjiiqHvva4f/HHvD6PifAWZ4UHGk6o6XT+2IBTW64RlxYqVzJz5FbNmzWL+/PmUri3Fsi0ikSg9emxD79592HbbfuTn59OjRw86depQ+wE+0mlTypBtk0gkUBQFTdNqWkKAoihYpoUe0lFVFdM0nTA5A9+2nGEoZxlKuVMUBdu2SSaT4HRJKYpCOCy7xbJRWRHnj9V/sHDBQioqK1j+y3KmTp1KUdsiUqkUixYton///vzjH/9giy5bsP8B/6zl3lOuziC7ZVrk5NYomcYSKI2NQ2Z5FCiNTUmgNBpkfdx4NFZpODQUt164AGccuVa4FEd7GKYco8jkjz/WsOznZTw78VkmT55M165bkkwm2XXXoWyzzTb079+fLbtuSZcuXYjlRDKdk0oZCCEwDRNNl0pI13QEAl2XYyLrG8+u28ZimsLroquZQSXQ9RCRSHaFUlZWQVlZGQsXLuSzzz5j6dKlfPXVTHRdo6ioiH/9619sv/327LffvrXcCQGJ6iQokJMTbbRfA6WxcfDHW6A0NjWB0miQ9XHj0cxKw48/jO79ZCJNJBr2fpeVVVBSspZPpk/no48/4qNpH2HZFrvtthvHHH0Mnbt0ZtiwXWs91yWdkuMcKKAqKqqmoqqqHKR2X6A4fnC94vrTDYdrLUN+FOderfBm6ZrzP89Tkpnv8iEE2LbtTcEFgWmaRCIRdL1uQWFZsoUzc+Ys3n33HRKJJI8//jh77LE722yzDSeeeCL9+vUjGg17bpJJg0g4JKcMN0CgNDYOmfK0+ZRGc+NEtG0LSkvLKAqUxgbTWKXhFkCum8zCtSmsjxsP573xeALDMCmsT2m4/vXHbbbCsx7crii3YPxh7jymTJ3Cc89NIhyW8dK/f38GDx7Msccel7UmbpnC69dPp9JZWxpZ8cV1S8JVTDjjIO6MLUVRMAwDXdezdnEtWLCILz7/gqlTp/LVzK/o3r07eXl5HHDASEaOPICuXbsAcsaZZVmeQnEVhJ+/jNLIQktSGqWlZRQWFq5TF9Tcak5p9UqZ5jHC9+h6hSOLu6ymqfb97jKv+e65VhRnbywU+b1V4PerGxAH4b8mqL02JjMeGjIbgN95vTLgQzhK3PO600rC/cywm06bGIZFOKyj6ypvvfU2o04YzWmnn8Znn33O4YcdxksvvcSUKVN44IFxnHTSiUQiOkK4tWz5CXItRTQaRtOUJikMVxm3KJMR96oKsViUUEhOIc7JicopvzZYllSYlinjo1evXpx8ymgmPvcMs2fP5rTTTsOyLB5//DF22nEnLrnkMr77bg6hkEY0GkbYkEymURqRvnWyVqasbU7j91Mm2a5lkvmMjWX8OL8VJUuplWG3RmnUsbl+KF6B6TyzGUyNEMuBPdUZ2JMWat7bGOPZV+veW5eRjupeVxTHmwrOoGONr9xBy8zvLQ05t19KRqY/FTcNcMPvDKo6v5tkNoAab9UMBmelVtr4MoCQ4bSzZBhFgXBYFoLPPfc8gwcP4ZxzzqFDxw5MmDCBV155kauvuZLOnTuRkxOlqrLay3iKIhfKuZ/rzQY43aj45d+9lHFNdRYNapqz+FCvaVGbpk0qZZCXl8PRRx/Jm2++zldffclDDz3Ep598ymmnncroE09m5syvqaislMpDyBaF7axK9+PKqRDCq+i4MtpSjOJ61vviI9u1TBw7bnmy0Uy2d+IPQO17LqqbAbPVwjITrFE4btbHaWOpebZshri1yCYZ3zYJjTUNv8u3XYPbcezEo3fP96z6nudmlo1pZCTWZEB3FfHGZL1ekSGXSmb/fT0IR9a9MLvXhcAwLZLJtPec2bPncPLJp7L9djvyyCOPcuCBB/L25Le566476NevDxUVVbW6QPLa5GTPeAG1UFXQdZVIJIRlCWxLdkUZhsVRR/+bzz7/jAcffJA+fftw2WWX0bdPX8bd9wCKgre40LKk8sBJS1dOha8V2ZKRfpYTC9zfdZEXbVvOetuUeP5xPgXC22HAI+OnGgpphMMR2YeVUYPIrGE0ilo1veYzOEKoabKPT3FreE4tR2mkcWtFmdcbMg25UVVQFQVNUx0/y2mSTpSgqgqqPzyK41bBu+76zW9voxkVr8butt4Ab+GYH8Xxrxd3rv/XwzQZ37sAIuEI2ro6XB386eXWghOJBIlEElWV3UfJZIprr72OAw44ANM0uf+B+3n11Ve44Ybr2GHH7aiqqsYwLPLz82T+8LNp83arR1UUVA1vi5RUyiAc1hkyZDBXX30l7733HrfcegsPjX+Irbbqxn333e8pHVV1F05a3himoii+7y3LeLV257c76cG9lonqCJeqKiiq4vvtliUb10BNHguFQjUBcMn8aRiWKF1bSm5erudZGUBlPXLG+rhpHAoKtrCpqKggLy/P82tLQmpouWVEKpkikUxQUFCAbdl1In5zI4Tc4qKwsA0TnniK8Q+P56uvvqSqsppYTkz62al5yFqSb+W0V4pvnLSuwRdpQqBpGmnDIB6vIj+/AITIkNka/9a07Gx0Xcc0TQzDID8/D8sSTJ36Iffddy9Ll/7Myy+/xHbb9fNelUrK6bC6rnvnS3iZ3vnnZbaA9ca2wTTNOoPot9xyG1M+mML2O2zP0KFDOf74Y0mnTeLxamKxKIqiUFpaRk5OjJxYDpZltaj85Xbx2LZAVRT+LCmRfs3J9fKQZ1dR5A4COVG+/XY2I0eO5KuvvmLrrbekOp709gLbmCjO+p1QKERpaSnRqByn8t+vKdsVlLKySlFaupacnFxndk8DfcabCU9plFeQm5cra/EyDJsX1w9OMxQBekgnmUiSTCXJzy/Ati0Zpxu7jG0CAkE6naZz58488cQTPPzww8yYMYM1q9eQk+tkRCdg/n5kSe1ZYJsCIQS6pmOYBlVVVeS3yUcg0FTNKcQdpeEpjBpll0wmCIVCdOjQjqeffpaxY8fyxx9/cNVVV3Huuf9x3IFpWGi6hnC33kemq0C2/nz5ZpOH/6+OaQqEbSMQnhI599wL+PLLL/n3v//F4YcfztZbbU3J2hLatm1LWVkZqqoSjUaxLLtFpYdbhiqKQigUYu3atcRiMVRVq6M0VFXDti3y8wv47rtvOXDkgXw8fTrdum1NVVV8o8+ewle2ukpDTqsOefVCt+LkYdtCrF1bJmxbtFhcv1mWEKWl5cKy3Bt+W5sZW/rT9ZthWKK0tEIIx9+2LYRttRxjWUIkEikhhBAvvviy2HvvfYUQQiSTRk2YXJx4dsO3OWTFfWc6ZYqK8qrM23WwnfRwsSwh7h/3oOjRo7e4+OJLxaJFS4QQQqRShkilasLsuXPSy3KMe93eTOH/O+DmHfezujop5s9fKI468hjRsWNn8eOPPwnhpFEikRKmmSUhslza5GT4oaKiShiGDFQ22bGd8C5YsFj07NFbrFq1WgghhGn4LGdx15y4/ipdW+751S3TMt+tmoaFZVo1mtoZOLTtlmO8wUx3ewTHny0Kfx+hAE1V69QqWirptEE6nQZkd4789MmCJw/uFhV102hjG7eRYzh7Pbl+tG051TXT2Ja7w6ycBvqvf/2LRx97lI8/+oi77rqDnj23wbblrCl/94hXp3JaFl6a1rEQ0NyoqkxTt+c5FovQp08vnn9hEhdecCGnnXYaTzzxJIoixzgsZ5v2mvLBL6ubz7iyajvZP502MAyjxo8+uzgbXQIYRpq0kfbKNq+Fb2/8cAlnyrhhGr6uXiccGe9WFWfwxcP56maWFmH8nnMys2daIl5PVIYHM/2+OY0P1Tf45vXdO/YU57s0itdfWyeNNrLx+9Wbaun5zelSFfK7qsrmdiQS4ocf5rHnnntipA0+++wzum7ZhdLScmexZc1zPTLixn23q0TrzCxpAbiFVHPTXM9t9HOyLOpzufKqy5k06Xlefvll9hzxD5YuXUI4opNKGZ4cUEtWN59xZUhxPmW3vzOoneFHmZekRVVRURW1RgZ9n5nv2DhGke/PfH2GPRUnM7QOWo1HHVqJf51WXDaE98/3ezMifNNn/dcUavpeKyoqCYU0Pvnkc3bccUf2/ee+TH77TXJzcygrraCwsMB3gFHGw3yZ3f9bVeV7vVX9mZ7IQj1RmpWm2HXxN2TX5d5ddFgf2eIA6oZxXe9YF412lxHvLqZpUVZWwdZbd+XFF17Esi1OOOEEVq78g0gkRNowsd25Jo191yanfo95LWfnb7PgvDbr2zMuZqtrBQS0CmpkWaCoYFs2iUSSgoI2fPfd91xwwfnceOONXHfdtQgBRtqksCgfkCuPcbpEcLYP8Reu2Qo62xZys736cNwkEilAHliUTpngFMyG4Zx6l/F8IWTBaNfcBsAw5MK4VMrwVqz7cR9hmtY6W0CmKf3gvlM+y3a275CbJtZRLALShtO95x0NK99vO90qbrdGQ8hJFRmHXTUBXdcoKMjHMCzy2uQwbdo0evbsyf7778/qP/5EUVRSKRnnjfBOwAbyl1AawtenuTlNwKalpvWuyP5WYZObG2XFr79zwgknMHzYcK699mqqnYI+7OwTZdvC2+fILfjCYb3Wim5Fqam5plMmRtpCAW9bb6+M9qe7s/DQ3WMoEg2j6TqppIGqyjUK6bSFbYNl1pSgiiLvZR5gFArJhXGRSMhbse4ifH3/oZCGpikIAYbzfH8B7e4l5rag5LPksbKaphCOyH2k3O1QpGXpzrZrjoZ136+q8r7qrNkxDKuO/Avh7MFlWCjIZyuqvFZffhG2nEXljU057t3ZUaGQhuGcjPjMM8/QtWtXDj3s0JqWn9N9ErBx+UsojRZBPRkhYOOjarI2Gw7rLF26jIMPOZgBAwZwx513kE7LOfCpVJqvZsxi9ndz0DSFRx5+jHffeR+cfvTPPvuCxx57wnumW/M2LVvusxTWKK8o57bb7mD+/IWoqtwiQzg1bpyN9xQFLrzgYmbN+gZFkYsKI9EQb7/9LjNmzCQc1uSiNW/Fs3xPvCrB449PYNWq1eDsqvvHqjX88suvnlm1Ut5zMYyaSQtffvkVv/yynJDzfF/XtIdlCWbMmMn7709h2rSP+eyzL/jmm+8QTveeYRi1Cl3DsFBVGTfjxz8CQDyeZPbsOcybN5+5c3/khx/m8csvv1BZWVXj0MkLiirPH7csi19++YVvvvkORVUw0mbWwl1RQXfPQHfONw85Z6W76LpGMpEmJyfKiy+8iKqqnHfeecRyIqSd52Z7dkDzkUW0Wj5uTaW+GstmwRHUFuOfvxmJRAKAMWPGsNWWW/Hss08TjYYJhXQsS7Ys1paWcvIpJxOPJ9B0jdv+dxulZaVUVlbzv//9j99++w2c7htFUbBsQUlJCYcdfjgLFy6msLCQN998g99//x2Qq5XdVf04K3gBXn75ZQzD4KmnnuG4407g2muv4/zzz+ecc87hkosv49xzL+DMM8/ml19+JZ1OM2fOD3zy6Sc8/fTTTJkylZ9+WsjEiRMZvvtwLr/8ci688EJGnTCKfx/5b6c2bjvba8hun2+/+Y7rr7/e66JJJtJUlFdhmjbptOyaAlix4jc+//xzZs2axdQpUznu2OM46KCDKC+r4PobbuCyyy4D5/Q9nBbMmjUlXH3V1Vx11VVMnTqNRQsXcvv/bmfSpOeZ9Nwk7r33Xi666CLi8WqcXiivFeK2hCLREHPnzuWB+x9AVWtafC5unpk27WP+7/9uYuzY+/i//7uJu+66h9GjT+Huu8Z6dhUForEwqZRBbl6M5yc9z9tvv81TTz1DOKxjOi24QHFsPDau0sgoQP21gPUrXGsvkHOfkalEmt04zf2sxm9nvcIUsCEoTiGfn5/H99//wLRp07jiyivAGVsQQsrhY489wddfz6K6upqjjz6akpISFixYwC233MKFF1zAzJkzURSV2267nXg8jmXZaJrCF1984SmTP/74g8LCQgzDoKqqmtWrSyj5s5TysgoAqqqqSCUNitsV8+HUD+nYsRN77LEH2223Hf369aNbt25su9229O7di6FDh9K5c2ds2+aO2+/gqaeeoqqyipdffokJTzxBdXWC4cOH88ILk3jooYe44sor5KJDZ2uNL7/8kiuvvJLbbrudW269he++m81DDz3Eueecz+FHHM6RRx1JWVkZ4bCcYWTb8MwzTzPtw2lcdullrFmzhkGDBnHdddex1dZb8dVXM7njjju47bbb+eyzz7z4/e9//8sR/zqC+fPnM2bMGJYsXcLo0aPp27cPe+61J9tttx3Llv3izMCDxYuX8txzzzNp0gu88MJLPPTQw9x11z289tprzJgxg7Fjx3HXXfdwzTVjmDbtYwBSKTm+VFlZSVlZGSUlJXTp0oVff/2VZ555GttpytlWTR6LREKUlpaz5VZb8J//nMOjjz7qbDEui7T1HT8JaJhmVxpuJhXC6Wb0TdVyE1zx9Yc2raB1T52ReF8zC/lmNutCuOHN0JBBRWdjURPPwhlbMJwB25tuupG99tqL3XYbSjKZJhaLYJommq7w0EMPEQ6HGTduHMcffzy9e/Xm8ccfZ8iQIRx8yME8/vjjbL31Vrz77rusXbuWkNN99OILL1JSUsIjjzzK5Zddztdff83DDz/MGWecwWWXXcppp53GdddfB8CcOXO4/Y7bWbNmDb8s/4VPP/mEpUuX8umnn7L6j9Ws/H0lM2bMYOrUqeTn5xMO66xevYaLLr6Ik08+mYLCAo44/Aj+85//8OeaNXTt2pV02uSRRx7l9dde59BDD/VaAQX5BQwePBgjbTBlyhQeHj+eY485lqOOPoqbb76FCRMm0K5dW3AK2KqqKq699mqGDRtGx04dsWyLCU9O4Oyzz+TUU06lU6eOvPjCi3z77bd06tQJgLvvGst9991HPB7ns88+p3fv3qiqSjwe59dfV7BkyRJ+/fVXOnXqSMeO7VEU+OGHH3jkkUeY+OxEZs2cxZo1a1AVeVRuMpUkXlVFVVUV4XAYXZdjLe740qGHHsw999zFTTf9HwP6D2DqlKncddddXHrZxeCvdDp5riC/AIDjjz+OP//8k2eeeRqA6upkZn01oBlpdqUBYNm2nKIoana2rK5OekoilTKoqJC1Mtaj1eEVyO6XOvONm9esSwO49+UaBokQdRpZAc2GW2rIuE8lU+Tmxvhk+md8+umnXHGFbGVkTiFes3oNhx9+ON9//z0zZszg62++Zvr06Xz99df8/vtKpk6dSrt27cjJyWHZsmUAvPLya8yZM4cnn3ySc889h7P/czbbbLMN+++/P2PGXMcF51/AtWOuZdSoUQDE43GSySTt2rVj2LDhzF8wnx49etKtWzfatW9Ht+7d6NunL/vuuy+fTP+E77//gd9+W8G5557LLTffwpZdt2Tc/eM4/4LzWbBwAWWlZaxcuZLCwgIG7TyI44873ttQcrvtt+O4445hbela9t13X8KRMD8v+5k99hjOwIE70aVLJ9asLiEeTxCvSpCfn8fPP//C8uXL6dmzJ+FwmNtuu43rxtxAVbyKb7/5ltEnjWKXXXahb7/emKbNMcccw9NPP8Mnn3zCtddcQ/+d+pNKpfjhxx9Ip9O0adMG0zT57LPPGDPmer777nsOO+wQPv54GpPffpM777qdfn37Ea+Os8MOOzBgwACuufYqrr9+DNdfP4Y99hhWK43c2WGTJ7/DBRdcwP0P3M9FF13g3Tfd/i8nz6ma7KrbcsstOOXkU3j00UdJJFLk5ES9GVsBzU/zKQ0njwohsCyLqqpqFGp2thS2YP78hSxduoxIJER+fh6RaEj2ezaiRu/HbcG4ZBbyzW3cd2ajlr2a8sy391HABrOOaDRMWfGYv2A+vXv3ZqeddsC2IRyWtVd347Ux140hJyeH9u070KNHD4qLi+nduzf5+flcfPFFfPDBB7QrbsdRRx1Fr169KS0t59LLLuX8Cy5gxIjd6dZtKwYOHESvnr0Y0H8A/fr1ZuCg/gwaNIDBgwcB8Pnnn6NpGu3ataN//5044YRRfP75Z8yZM8d71w8//MCiRYtQNZXc3ByGD9+Nq666mg4dO/DU0xPo0aMnJ510EieccAJPPf0Ul112GatWreKrr77illtvRVXlmIWmKTzwwHjGjr0b0zSZPXs2999/P/ePe5DXX3uTvffel9PPOJ2f5v1Ebl6MMWOu5+CDD0bVVJ588ikGDRpEfpt8itoW0aVzF+69915eeeU13nzjTfbb7wAqKiooWVuCZZkMHDiQPffaky26duXNN96ktLSUysoKRo06HtM0ufPOO0kkEkSjMQBKS8upqqrmtNPO4J6x92BZFuPGjePPP/8EZ9A/Hk9gmW5mkZMJQiGN8eMf4bDDDqNT505MnTqVc845j5deeoWSkjJnUD27MPxzv3+SSqVYsmQJgNelFdD8NIvSEM4MFNsWaJqCZVnk5eWgavDQgw+z1557s93227H33nszfPgwevfuy2GHHcG0aR9TVlaBaZleIjemnHUL8hbBOv3bkjzawnHiUVGciqS/UuBKqQDblkeDCmcqrLua9vvZ39OnTx9Atj4URU5BVVU5DfX000+la9cunHTSKM4//1wuuugCdthhR7755hvGPzSeefN+YMjQwZx88mi22moLFi1axNFHH8OQIbswbtwDPPfc84wf/xCzvv6a119/nWeffY7HH5vA0089y++/rwJgy65bMnLkSCorK8nNzWWXXQaTSqUYMGAAW225FZ07d2bEiBGsWrWK4447jp49t2HZsuX8/PNSli1bxvvvT+Grr2awcuVKFi9eTI8ePWjbti2HH344XbpsQX6+POI2Ggvz0bTpXHzxRVxzzRjGjRvHFVdcQY9tenDhRRcy8bnn2HPPPfnvf/9L3359AejVqzdPPfUUQ4cMZfToE/nmm29ZuWolS5Yspay8jEcfe5TJk99m7NixnHDCKHJzckklU8ybN4/Fixbz9dff8NtvKzjs8MPp2LEjd9zxP/r13Y6zzjqbHXbYkWQiSb9+UtkWFRVQUVHB0qVLeeihh7j++jEcddRRxONxAHLzYuTmxtB0mXbCaaWdecbZnH32mQwZMoS+ffuRn5/PVlttxfPPP89++/2TOXN+8KYWu+i6XHW57bbbEgqFWLVKpkWgNDYeG6Y0fIlnC+fkMgE5OVG+/PIrhg8fwfiHH2bvffZh4sSJfP3113z11VeMHTuWHXfckYsvvpjzzz+f1atXo6qqs5VwIxRHQ/c3J4GeWD98rTo3DhVHFkzTJplMkkylEbYgHA6jKHIWTps2uVRVVTN/wXy22nIrwNlt2EdFZQX33HMfDzzwEE9OeJoHHxzPQw89zOGHH4ZhGKSNNA8+OJ577rmP//3vDn76aQH9+/fntttuZtmyZXz33WwWL17M4sWLqaio4PeVv7N48WKWLF3Cz8t+9rZeGD16NEOH7oJpmhQUFPDTvJ9Yvny5DIuqkN8mH1sIfvzxR2Z/NxuccZBFixYxdOhQxowZw/Dhw4nH48yYMYPDDz+c4uJili9fzm+/rWC//fbzFg6+8847XH/99fz3vzeycOFC+vfvz+rVqznuuOO4996xjBlzDdtvvy15eTnYNpx44vEMGjSARYsXM2zYMG699RZGjRrFhRdcwKWXXsqFF1wodziNRhg16jgi0RCpdJq+ffux9z57s//++7F8+a8UFRUya9YsnnrqGTp36cxee+3JxRdfzJAhQwAoKpLjDEVFRbRv34H7x93PSy+9wiuvvEJ5WbmXt4WQx8PirOA/4YQTeGvyW3zwwVSmTp3KJZdczOWXX8oVV1zG888/z8CBAxk//mFw1tn4MU2bcFinurqaigo5KaFFlxGtnA1SGsJJ/FRKnusrbJnhX3zxZfbff38OOGB/PvlkOtdeexXDhu1K584d2WqrrowcuT833ngD77zzDrFojFEnjGL5L8vRNIVkKu11WQW0QupLtyzX3RaFvxsQR6YSiZR3up6uq+TkRIlGw+Tm5fDr8l9ZvHgpL774Crfddjunn346S5YsoVfvXgDomjOl03lnvCpOPF7FH3/8wao/VrF27VoqKytRFZXevXtTUrKWlStXkkolqaysJBwOEw7rVFbGOfDAA3n88Ue57rprufnmmxmxxx6ccMIobrjhOm655b9cf/0Y2hYXk06bRKJyYLeqSo5ttMlvQ25uHkbaoLKyknh1nKqqSjRNIxKRCwB33nlnDjjgAIYNG0Z+fgHDdhvGgQceyODBg1EVle22245rr7kWUOjfv793sNeY68Zw9dVXsnjxUo466mhuvvlmLrr4Ilb+vpJYLIZpCm+6rarKccRU0kDXNWbPns2LL77I66+/zsuvvMJTTz3F62+8jpFOE41GvWmr7doV8+UXXzDvx3nk5xfw00/z2Hffvbn9f7fz/fffU1lRSZ8+fRi8886MOvF4quNyEWUikSIWizBmzLX88MMP3HfffQwaOAg9JM9Ux0l3Jyjk5bVh9OjRfPvtt+Tl5XH66WcwevRonnlmIumUSSikMWjQIObOmQNZeiPcqcY9e/bkyy+/BEDVtDr2ApqHDVIableCO/tBcabcnXfeedx7771cc81V5Obmkk6bpNMmqZRBMpnGMgXV8SRdunTi4UceYpchuzBmzBiSzsA4/hW3Aa2L+lpaGdeFANOSBVsqaVBVWe2lv6LIVdXRaBjDMJg9ew5vvPEW//vfHRx77HFcdPHFnHnmmdw7diwzZsxgyJAhtG/fntLSUgBMq2bxmLBhq627cu21V3PjjTdw5ZWXc801V3P55ZfSrn17Tj/9dK666nJuuun/uPLKy/nvf2+kR4/uALRpk0sopNU8S8hn5+XlOqGQhMNarZ1yhZDnqliWRXl5Gal0ilg0hmmasmvNlmeZAFRWVvHQgw/x5IQn+fHHH3niiSe47977+OOPPygrL+PYY4+hZG0JpmlSWChnXNkW5OXlAfDee+/Rs2cPDjvsEPrv1J8LL7qQoqICdF2pc7iRpmtceMGFdO++DdOmTWPvvfdm4MABxGIx3n//fc46+2y6d+vuTVvt06cXBx50IAUFBSxb9jN5eXm8994HXHfddcyePZtEMsktt9zCrK9n8dprb5KTKxVONBrBMGy2335bvpzxOVOmTGHpzz9z3nnnORNkankLTYMjjjiMTp06cPjhh3PooYdww/U3MO6+cTzz7DMs/2UFN9xwAyeccAIg9//yozraJ5VK0bVrV3kx8yUBzcYGKQ1EzZGlyaTU9ueffwFHHXUUJ510olcI6LpOSNedT2eaXSyKYVikUyb/+9+t/LH6D+64/XanoJBbNgS0LvwtBiGcLZ0tgWXJRWZyzyOTdNrAsiyvYItEQ+S1yUFRYM73P/DWW2/zwAMPcfzxo9h///259NJLue++cXwy/RO23HJLjj32GO65+x6mTZvG66+/yoUXns+gQTvzySefAPJIYNuS07MVRa6EFkLO80+nTW/1sqoqxOPVAFRVJUgmDcrLKzHSFolEislvvcO7777P25Pf5b33PuCD999n2bJlTJv2EdM+/Ji3J7/L++9NYcqUDykrdbpFgFgshqZpaJpGt27d2Guvvdh9j93Zffc9OOigg+jQsYOnRLfcsitvTX6Dl15+iVNOOZnX33idhx95iG7dugFwySWXMWjgINasWc2555xPKmU4s4ZkK+KA/Q/AMAwOPuhQHn3sUZYu/Zkrrriafffdn0sukYv1AMrKyliyZAlV8Sr22WdvlixZQjgcZvDgwaxevZo2bdqw4447sHDRQhYsWATATz8tZObMmbzxxhvM/0lONLjrrrvo06cP06ZNJT+/DTtsvwN33303p556CpMnv4Ouq1THE4RCKr//too777ybHXbYkW233ZZRo0bV2V/Lj2naDBo0iCeeeIKVK1ey9dZbc+aZZ3L00Ufz73//mxNHn4hpyJmZuErcFMRiYX77bSWffy43qASwbN9xDwHNimKkLVFeXk5xuyLvYlOUtAKk0gaRSIgpUz7ksssu4+WXX6ZHj21IpdKEw2HvHAwUUFC8Izk1TSOdThONhnn55Ve55pprmD59Op06dXDOEJYKBiFfZNuCiooKCgsKULLUWDYWwpndlU0GFaV2LVr4JgWUl1fQtm2B3IEzm+PNiBB4cT/puRcY//B4pk//iFRKpqXfnhv/XjxkdCdJi/LDFmCaBsIWqJrc6llV1Tr7KgEsX76CuXPnsmrVKr744gtmzZpFYWEh3bp1IxQKsfXWW9O3b1969OjBVlttRfv2xeDsF+UWHBUVVeTn53HLzbcxZeoUPvroQ9m9IkBzasyKIpVFOKyzfPkKTj/9dEpKZO39g/c/oEPHdnKrdEUh5cTJn3+WcsXllxOJRjzZVVWV8rJycnJziEblsaPClnJ8zLHHMmTIzggbtujalSlTplDyZwn3jbuPSZMmEQppvPzyqzz66KMYaYPb77idnXceSDyeIBaLsXTJUi6+5GKuvfZadtllZ8becx/XjrmWkQeM5MGHHkRTNU4cPZqLL76Yvfbag3g8gaqqxGIRliz5mSkfTOHXFb+iKArRaJTc3Fz69+/PHrvvgS1s3nj9DaZMnUI4HCaZSLJo8SKKioooLCzk559/dgadtyZRLZXoAw8+wNy5c3nm6WfYZcgQhg4dQvt27YlEI7z77ntcdeWV9OjZg1defoVoLMynn35Obm4uAwf2p7IyTps2ucz86muuu/46DjnkEP7zn7M8WRJOl1k2fv31Nya/NZnffvuN3Lw8IpEw2267Hfvvvy84LUc37yvOvlehkMb8+Qs56qijePyxxxm8yyCSyTSRiOwB2RwoTn5RFDmbLBaLEY2GvS58vz3TtNF1lXnz5nvHvXbs2N67vknKOSdd1q4tpaio0BufFs69Wn7eUKXhL3wuvfQK/vxzDU8++QSplIGmaaiqXNgjZ7P4NkTzIswkEglRWRHn0MMO5YwzzuCYY44iHk+QkyOn8AVKo/nxp9tzz73AIw8/zMfTp5FKGl7fvLRYE88CZFo6it+yLGzbxrIsFEUWYJnhNE2BaRqUlJTw4w8/MveHuSxdupQvv/ySkj9L6N27Nz179WKLLbqw44470rtXb7butjVCCHJy5OaANc+yKSsrw7Zs2rVrh6JCOiX9+/nnX3Lqqafy+uuv07dvbxKJFNFoxFNmbqsjlTJYtmwZ1dXVdO7cmfbt26Mqitwl10knmd6CeDzundXhmlAohG0LbOdcauEcuKXrOpouZ/bMmTOXnj17kkgkWLt2LZ06dSISjlBaVsovvyynU6eOdO3aFU1TsC253kAImDvnB7baaisKi/JZtXI1v6741ZvO64Y/mUiS1ybHu2ZZcsZifaTTJqqqEY/L1pVlWaTTaXJzczEMA9MwieXEsEwLy2kG2LZNu3bFddLSZfGipSxctJDddtuNgoJ8Eomkl1amaaOq8uwI05THHOu66sWtvzBtCH/lILPgcqmqSpCXF+Oee+7ljTfeZMqUKYRCKoZhbZKjUusjUBrrwO0G0DSFgw8+lOHDhnPFlZdRXZ0kEol4B+YActW06wEhY8y2LIQQhCM6Bx54MEN2GcJ1119LVVU1OTmyyyJQGs2PX2k8++xzPPrIo0z/pG5Lw49hSCVhW7JgqKVcHP74Yw0VFRUsXLiIOXPmsHLl7yxf/ivz5v1INBplu+22o3fv3gwYMIDtt9ue7tvI8YPMgs80bVKpFEII2VJRVPSQTiKRwDRMitoWgHdSm8xc++67H927d+eRR8Y7g7ly4zvblmd826JuAWtZwjsjQ4jaGSRbmq2rwHMVAI492xJouiK7lBR5uI67U6xXINjZ/eUWmO773JaSH7fWnUymMQyDUChESA+RTCW9lnw4HPamqfr93ZgCGSdMqXQKVdUIheT7/a0Ed2ZrKpUiFAr5wiTHKmxb3otEZIWivrhzMQyLVCpNLBb1Wn6uss5snchtQxQMw2Kbbbbhuuuu4/TTT6WqqprcnJx6w7Qp+CsrjXoaiU1DUWTCAbRtK7cu0FRn9oI/gnBqbO6nU+C6W3AUFRVRXlEOOJu/bYrI+qvhFnyNwK/Q3cVw7jXLElRXJ0km01RUVHndAJFIiFhOhEg0ROnacn6at4AvvpjBddfdwEknncLFF1/MqaecyrXXXsMXn39OYWEhhx9+GK+99hpz5sxm0qSJ/N//Xc9hhx1Cz17byMLVtrFtqKqsxjBsqqqqMQyDSCRKLBYjEokQCofQNFWuy3C8LdwCzAnvZZdexvvvv88PP8xD11WMdBrbOR5YAKoiM4IsyOTxm96hSk4G9m9AaPuOwnTfsa5CTyDPnRBuJcEpECKREKGw7IpNpQwsU6A7K7tRpB8y9y7z99vjbGeOM06E4zd3/Uo0GiYWi6FrsrWj6zp5eTnEYhFPGfm97RZmwqkMyTSQRp6d4bxUyLEBd6t3y5K73grHH4mEnOmoqnLigjuArjjXLEtg2zaxWATVF6/rIhTSyMuLSUXnhC0SqaswcNZ2AEyYMIHc3DxOOukkZ/sYR2E0Mh8ENI0sSdF4XKVgpA1s26a6utpLSNOynBrOOlLOueUu+a+uTpCbI2emyC4Pv2Uf9V3/G+NFSSNqcy6usk6lUiSScpfYVFpu8qdpijfNNT8/j+rqambO/JoXnn+JK664ir3/sS9777M3Z519FldddRU//PAj/fr148gjj2Tc/eP47rtveGvyG9x44w2MHj2Kfv36yS0t4glnOq08XAghCxbTMIlEIqiqQjQaIxSSrRh3ZX1m16YfPaRSVVnNP/fbh5122on7779fXtdrzsjw4sTZ9yykh9YZT4pvp1ZXATSE2xWjqLJQVdWarhmAnJwY4VBILmpznqe4hVvGJAL5JaPv3+ePzEJU11Vvu/WsLUW3JeW8s5Zxwqmq7tkZrudqWkaRSM15Hm58xGLhetNE+r3mGOGm4CrGdaWPZQoKCvIQNlx77bWcc85/5M4TTgsHGpdmAU2n6SnqQ3Fqb5ZlEYmE2HHHHZn9vVy05PYnujXDrLLljGlEo1FKSkpZs2Y1Ow/e2blVk7H8yFZKUIvw42ZiJ6rrRI3tHPpjGCapVJpkMoXhzGDCaWWEQ7Kl0aZNLooCP//8C5Mnv8PEiZM4/fQzGT58OJdccglPPf0Uf6z6g9332J3rrruOO++8kxdeeIFXX32JK664jMMOO4SddtoBnEHqRHWKVNLAtgU5OTFycpyWQyiErusoqiJryJrmO6tehiBzPKG+QkQIOZ0U4LrrrmPy5Mm8994HhMKarPlTo3DcT7csq++Z64Pqi3yvxZJR8LutAz9uuvl/yy++i+6lLNcgI9EzBcChXrfrwqfA/M91w1bfM90wZcyObRRuHGV7ttvKSRtyyvKll13GjjvuxHnnnUM6bRKLhdc5Qytgw8kiwk3AUQZuhh2xxwh++ukn/vhjDZFICMtqeCl/KpVCVWHp0qWYpslOO+0EQMidOVUPnvzWk0Gamyzy2yLw+8vtS7Ysm3TKIJlMEY9Xk0olQZFdHLIrQ3YvxZy9ggzDYPXq1Tzy8GMcf9woBgwYxB577MGtt97KRx99RPfu3XnooYd4/PHHefbZZ3nyqSe44YbrOOywQxg8eBCdOnUAZ1FXolpOvQbIb5NHNBYhHAnJVqd7opw3PiS7KmUJIw+1V3A+FRXFs9Fw7EciEUzTZuedBzJu3DjOPONMPv74E3RdJZFI1MzeW0eBvMFID9e95n7NvOeSzV1T8bvf0Gf58cdX5nMzf/tx7a/LThPwd6XFq6uJxSI8N/F5JkyYwNuTJ4PTpS3cfviAjcYGD4TjZAbDsAmFVPbb7wAG9B/Abf+7hXTK9A5ccRMcV5ac2SrV1dXk5eUwcuRBdOnShcceewQjbcnpmm41RUhH7kB4QUGB17e6qRD+mtY6uoBEYwfCnTDVi+9dmdR5lvNeyxKk03LwODfXmXnmo6qqmpKSEr7//nu+++47fl3+K3l5eTw36TkAjjzySNq3b88ee4yge7dudNliCyIZB+bgDFamnQFKnMzqTm8UthwMdscCFLKHwWNd8eBLX4EcsI7H5XhHUVGBF9c471WczfyisTBXX30t48eP5/XXX2ePPYbXGkiuNQgc0PJxZCSZSKOoCpFIiGeffY4LLriAd999l1122Zmqymry2sgtU7Llj02N8hceCG82peEGcOqUaZx62qm88MILDB26CxUVVeTk5HqHtODMeEmn0oQjYVQVbrrpZl5//XXefvsd2rUrRnMHCV3PekoDKsrLKSj8CyiNJpDpVg5a2s4KY1vONMkoBMvLK1m6ZCkrflvBjBkzWLp0KfGqOH+W/IlpmvTu3ZvevXszfPhwZs2axZQPpjD1ww9qP8QhnTYxDRPF6aNWFbWWUhdOF4y/UtDsSSOkUnAHyTOVhivgliVnXeXmxvi//7uJu+++mzfffIsRI4Z7m+kFtD7SaYtwWPZo3Hbb7bzwwouccfrpnP2fM+W0YkWV63LWVQnZhARKoyGcDO1O13zooUe48847uOeesRxyyIGenXTaRNVUZxaMvHzlldcwadJzvPXWW+y44/bevPNafvCUhq+lUd84yUZC+FtKzaA03N/uc/33hVNDV1Q55dEWNrZte9NP3QFJl8qKOIsWL+L7779nwYKFzJnzPWWlZaiaimXZdO7cie22245ePXux40470r+/XDXr8sorr3HfffcxffpH3mI505lv7yJsOWyuKnJWixcHPkWaKVzNiauY6lUa1LzfNGRchcIaV155NQ8++CD33XcfJ510IomEnBrql8GAloebtqmUgaZq3jki/3fD/3HLrbfw0ksvcdhhh9SSgSaXWxuRQGk0hPNQxVkRrKowadIL3HDDDQwePJiDDz6YYcOG0bVrFxLVKZYsXcKML2fw6KOPEgqHuOfuexg4aBCJhOyq8jyb8XxvnUZhgZcomwr/uxTvX11qK41y2rYtrKM0/N+9KZ3UXjWvatkHfm0b5s2bx5IlS1i8eDEfffQRq1atolOnToTDYYqLi+nRowf9+vWje/dt2KZ791qLwUBmRNM0icer6dChmAkTnubxxx/js88+IVGdIpYTwTAsuTmeE/dCyERRMpXGJqJRSsNHKmWiaSq6rvLoo4/zzDPP0GObHtx5150UFxdhGjaapiJ803bdcOFLx4DNh3DG53Rd5eOPP+Gcc86hS+cuTHzuOUzToGPHjrXXt2SWG5uRQGk0AWG7021VFixYyBOPP87H0z9mzZo1xGI5pFJJdF1n66235tBDD+Wcc85BVaE6niQnN5rdo5lKYxMv7msKfqVRUVFBUVFNS0MIeV3YckaPOyvInd+ejRUrfuerGV8xf8F85syZy6effkI0GqNXz55036Y7W2+9Ndtuuy19+/alQ4cO5OW18Y4qxfFPPF4NAvSQnKXkzmwz0nLM6ZlnnuORRx7m00+nU10tV/fazoA1OEqjvpbGJqKpSsPFHb9YufIPTj/tdH5d8SsTJkxg4MD+kKEcTMNGD9Vk0oaeHbBxSCUNeTJgvpx+f/+4Bznv/HM49dQzuOfuu2mTn0t1dZJYLCrTyCkfMgvkzUmgNKh5qFcry1Kouxnb3Toi6ux+++efa1FQOOzwwxgwYAB33nmnNygpd721iMZiXr+8ED6P+mqAtm1TWVnZIpWGbTtKgJopg6WlFRQV5TsrqQW2bRHSQ958ehchIJFIUlJSwpzv5/Dtd99SVlbG77/9zkcff0S/fv3o1asXffv2pWfPnvTfqT8dO3VCQZ4p4aeqKuEpZl3X0VQNTddQFCfhfInm9v0/88xEHn74YT777BPi8QS5uTEsS24XAq1Tabj3/JMtAE499XReeOEFdt55MA88cD/bbdcP07QxDINYLCIVvBNT7jhNfe8I2EAyWnfuWJ1biZo16xvOPutsTNPkxptu5JBDDiKVMrFMk+rqavILnF1/s3T/bm7+nkojo9BWnRWetZqDWfBnsnhVglAo5BVso0efzNAhQzn7P2d6q0VTyRQ5uTl1BnKzIQSUlZW3GKXhF1TXL7ZdsxitvLycdu3kCnk/v/+2CiEEP/z4Ax988AFCCH7++Wd++eUX4vE42267Lf369WPAgAHsOnRXum7ZJfMR3gr8ZDKJaZhEY7KVpmma04qRffZyhlO2NMuuNNwWn7O1kqQVKg18sphMpBFCyMWDmmx1nHnmmQgh6NatG+PG3eu5SaUMQO6+6z7bTVt/fARsAG6+9cWjO+sNYMmSn3nyySf58MMPGThwENdffx3t2xc7OxQkicViJBIJ8nLzCEcCpdEsNKfScAOeTjnbnId0WSg6B164q4rBLaCc78iuF9MySaVStGmTx0EHHcyee+7JZZddQnl5JaFQWPaRC9vrqsn0IPj8YguSqWSLURoI2apIp03SqTR6SK6D8FNeVsnPy35m6dKlfPPNtyxYMJ/ly5ezxRZdSaWSWKbFzoMHM3DAAHbYcUd69+5Ryz2AZYEQcnDXXWHvxZcz5VUmsFt1y3hANoRc/Z2TE/3LKo1MMmuyX3/9Lccddxz9d+rPMcccw/4H7O9tvBevSqBqKtFozSaMnvJowjsD6uKmW6I6haIqXp6ZO+dHxj88nsmTJ7PtttvywAMPss02W4Ovm9F1W15eSTQaJRIJBUqjOWgWpeH9cGZGZe5+uh6cesrp7LPvPhx77NGZtxpNWWkFBQX5zao0hNPd5gqeojiR6BTEdQprZ5fXbGMR33zzHb8s+4VUOsXEiRP544/V5OXlEo1EKWpbRM+ePRk0aBAdO3akb9++FBbmZz7Cm7mUWTBnDa8vQb1wZNrJgkCQTqWJ5UT++kojQ+jlimI502/lyj+YOHEikyZNQlEUjj76aPbdd986M8xM09nYkOyrugmUikdmurjx4rbCcc/2dli2bDl33HEHb7zxBv379+e0007joIMOQtfVOr0b7u+yskpisUBpNBvNojRcjypgGhahsMbMmV/z6quvkkwkMcya09FqHDoFjL/gUuQ+UtFolBdeeIHi4mL2339/ksmkM6VTqf2yLKiq3MMqEolwySWX0r5d8YYrDV9E2LY8KMitzQMIIZxxgZqT2zKZO+dHFixcwNIlS5kzZw5fzfwKTdXYcsst6da9G4WFRRx+2GEUFBaw1VZb0aZN7RPfcMZ0TNNE10NEG6mU6w13fdezIMDZTTT811ca9eAvkFatXM1777/H3Lk/8NKLL9J1y6783//9H/vuu3cdN6bhTh3XvG0ybDfPOHtW/W3xjVOYppwqrihyfY+/8F+9+k/uu+8+3n//faqrq9ltt9044vAjOGDkfuDkC1VV6+zs66ZZeXkl0UiUSDRQGs1CsygN7wdYtkBR4PPPPuejjz6itKyMcCiELRreJgRkl0AkHGHqh1PRNI29994H0zTrHNtYH6qqImxBOBLmnHPO8fb6b3JkOoFXFHf9g8AyZfcZQCQarbMC2jRtkskkq1atYv5P8/n8i88pLS1lwYIFzJ07lyFDhrJN9+60LW7LsGHD6NmzF8XFbYlGos5spZow2pZUoAKBbQsiEblpnhsOxftXP00Ocz0I39bof1el4eLfDt6yBHO+n8ND4x/i6aee5uBDDmannXbiiCOOoF+/vrXeV1FRhYJCm3x5pHHIOQPbtdMcfmtNyB1yTQzDQFXlue5+bBsWLVrEpEnP89JLLxKNRDnv/PMYMWIE3bvLbigplzI9PKWeoYh0XQ2URnPTJKVhWKK8bB1KoxmF//jjT2S33XblnHPOzrzVaNauLaNt20L5ww2Uiy9w2fzsCrVpyjUI2Wr2q1f/SXV1NfPmzePrr79m+fLlrFixgkWLFqHrOn379mVA/wEMGjSIgYMGssUWnWsK/Yx3lpdXkZeb6zWmvLUXzqp4v323UGwI4XabNbIbqj7q7Z5yp9xaTlw6cepfpwHyWmZ4NybZlEamMK8XTlrISoxc1+GyYsXvvPnmm3z00ce88cbrHHHEERQWFnLmmWfSuXNnb88tl6rKaqIxeaJfQxNGMvHSM5uz5ghnFuoo3Q14j3/LIBfLEixZsoQZM2awZs0anpv4HPHqOJ07d+a8887jiCMOq2XfSFuyW9bbaUB2Cbr8dZWGPBdksyoNRx6yKo0MFCNtibLyctplKo2MAtg0ZDPTPZ3MDUhjCi/DkOMhRx55DMOHDeOCC8+rK7CNpJbSyKCmQJUzs+SnPGEuFNLrNHVXr/6TX5f/ypo/1/DVV1+xaOEiysvL+bOkhIqKcrbffnt23HFHqSgGDGCbbeS5zfVhmTIy3AKjvLySgoI2mdbWKQQNxUlNGBuO93VRr9LI1tJwMrDYXC0NR3gzlcb6ypAfv6zblkBRFeJxeVypnxkzZrJ48WKeeeYZKioqKCsr4+CDD2GXXQYzoP8AOnbq6E3rxRkDSSSqCYfDzmLN2grJw19Qu9/d/LWJ4nid8ejFjTxbQ9M0Z/saeSBXNBKVW737mD17Dl/P+prJkydT5ZwY2LNnT3r16sV//vMf73wOnHdbli0X8WkaqqrIrj6/jPniolUqjbXlxHKk0sj0qz9Mm1VpeC2NtRQVFTWipVFeTnFxjdLAFSTHPsgmo/98gqbgBv7II49ml1124bLLLvFmQzSVkj9La7WKTFMqM8OQh+rILbfr+jGdNpk9ezYrfl3B/AXzmT59OgC5ubkkk0lycnLYbrvtGDBgAL1792Hbfn1qRZQQYBgmtiPR4VAIRZXXwmEdyzkBDmoWGZWVltG2uK6Cy6xtZFJvBvAlYnPIUSqVIhaL8Owzz/FwtsV9PryJACgyA8sfmxRFkbOa0oZBUVHdCQTZaGyGE76Wnn+so7parnnxVzhKSkqZ9uE03pr8FvPmzSMcjpCbm8PWW2/Nfv/cj27du9Gndx/yC/I8NzjTpIUQ3il+tm2jqRqWZWFaJrquOycUqpimXLHuFirNue2JW5ilkgaaLo9kVlXpP3f8wa3lG0bdFpif8vJKvv3mW2bOmsm333xLRWUFK35dwRZdt2Cnnfpz0ujR9Onbx4tbV0nozjkjbry765z8KI6cuUlYR2k4s6cam8abisy8UVpaTk4sh0i0tl9de668/fTTAkaOHMmMGTM2qdLw4ljA2tJSioqKapXNfl2gAIpp2sLd7qI+XCFzP5uKe+rbkUcezfDhw7nggvPqzIpoDELA77+vpFPHTnVqN5nM+3E+c+bO5eefl/Ltt9+xcMECYjkx2hW3o+uWXenevTv9d+pP1y27kpubS7duW9Vyb9tyU0U3U2X1a4YG9hJXyPGSivIKeSxpBp7SyHAvbzpxnHndobkESDibRkZjYSY+O4mHH3mYTz75mERCKpJMxSaE9JtwM3N9/m9OnOf73xWPJzAMI+usszq43YCZ17Oh1KSLK+NugeYWdKZhIoQgllNTU66siDNn7hwWLFjAK6+8QpcuXVixYgWLFy9hhx22Z9ddd6Vjx44MHjyYfv361LxvHcTjCXRdTm2X+2TJI2tty5bjiG68C5yuHDeCamPbtjPTz7UhC2ZXKYRCWpMqb8t+Xk4oHOLjjz+Wm2AuWcqaP9egoJCXl8fQXYfKTTCHDadHT3mMr0tDZUdmDRxHzlxc936lEYvGCEdqjyO1RMrKKojFcuR4aZY84x4TPP+nhRwwciQzZnxZV2lkcdccZMZxaWkZRYWF9c4QhHrGNNzCoblwa+P//tdR7DZsNy6++EIvQpqCbdV0deEI2ty5cwmHwyxcuJDZs2d7G/YpikL37t3ZYost6NevH/37D6BXr57k5eXV6XowTdmVpeuaNy0ws2bn1orcmFGdHROFu3LYKXBknpbdYhUVsgXnFvTNVeA3C846jVisnjGNeloakuz7Ym0M/O9RlIwxjXrwe7Upce4vel1FZTsPcNPbzUz1VXqqq5MkEgkWLljIp59+yk/zf+LLL7+U65ZUlZxYjEE7D6J79+6Ew2H69u3LjjvuSEF+AZFolDWrV1PUtkie952xMWVz4RZSlinPMC8tLSe/TT5V8SqqquIkEwkWLV7E2rVrmfbhNBLJhHNOzh9069aNcDjM7rvvzg477ED37t3p3LkznTt3rqV8TFMKkNuKyYar/3Dkq05Lw1dWCifuTVNWQGVBHJMtjQZa7psDpb4xjQx5VJSadHC7p2bMmEGnTh0wDAtdd47N3khkKo1aYxpk1wWKbQtRUV5JQWHdvvfmwo2Uo486lmHDh3P++ec0qYYD0vOGYbF4yWLmzp3Lsp+X8euKX/nhhx/47bffyM3NZejQofTs0ZN+2/ZjyJAhFOQX1NmyA6flU1lZSSwWw7ZtQnrNqvX6yEy4xhSa5WUbN143lFTKJBLRef75F3n44Yf56KMP612P4w+/4v3b9CSTaQzDqKP4Nya1lL7bjeULv1vpCOla1nixbaioqGTu3Dn89NNPKCgsWbKEr2Z+5Y2PRCJRunXbmq222oqCggJWrlxFhw7t2WKLrsSiUQYMHEgkEsYwDGzLJicnB13XicVi6CHdmwYsN72UC2bLysq8qeSWaRHLifHbb7/x44/zyMmJsXDhQnRdp7S0lGXLlhGNRlm4cCGaphEOh2nXrh09evSka9eu7LnnCAoLi+jevRv5+bW73VyEDVXxONFodKMpPLcgrqqqdk6A3DjvaU4qK+MyneqrJDuaceHCxYwcOZIvv/yS9u2Lm15GNgONKbOU6uqkqKiopLi4LbZtyymhvsVszYFhGBQU5HPooYex++67c9lll1BZGUfTZM2+IWxLHsqUSCQ47LDDqKqsYsDAAd6ZEP3792eLLbYgHA7LAXBbYBgGli3DYtvOfHFkJ6mqODM03GoMvirN+uC41TQNBQVdlwqotLSUwqJCLFNOs23OOG0OUqkU7dq15bnnnueBBx7g888/5c8/15Kbm4tl1h4JF8JX5VCoUyvcmCiKXKejaRqplFQaRUWFmKbsLsqMV++3MylivdPVeZb7CLfV4UWEwOvyka0Sp3nmtFDcM7JV5wwSPST3AgOc80ik9R9//IlvvvkGVVWxbZsff/yRtWvX8uuvK0gmEiSTScrLywmFQ1RXy73FbNumoqKCHj16UFhYREV5OeFIGMuyCYdDpNNplixZQteuXTFNU05iUTWq4lXEojE6dOhA922606ljJ0rWltCvXz86dOhAnz59KCwspEeP2t1L7hb97gC4q4xAhldRa47ldfFaD+sS+8z8V49dRVFQVEUOvkejlJaWoqkakWgEy7IbVYnblCjOSZShcIi1a9cSi8W8pQN+eXTTPDc3xtw5PzJy5EimfzKdrbfemqrKKq+bUk5DaT7cshBf/tJ1nfJyuYu4qqr15i+ltLRClJeXUVzczltEJ+1sSClaG8NIU1hQwP4HHMDwYcMZc901lJaWEwrVrdHWwcmYqqpiGAbfffcdu+++O7ouBwuFLaiqqsIwDS9jyAypSd/XFwS/kNZnpyk4z7Gdfh3h7D3VoUMHTNP0wuHH2xBwM+DOnmrXvi2PP/4kDzxwP7NmzaK0tIycnJh3frhn3yc4UuDWkcObEVkIyXepqkpFRSWGkaa4uLiunxxsIRwXdQW+aThPcZ5R91lNiANHqcj1LvKZ6bRczxAJh4lEIqCAqtadCm7bsHLlStrktZFrIDSVX3/9lWRSbkNjmiaarnmFtFtQt2vfjuLiYk+RKIpCOp0mFotlPdmxujpJdbwaxR0AdwpqRVHkNvnICtc6xba58lMmjmKyLItIJMLatWvJyckhFnVktQVpDUWR8uhWHEpKSsiJ5RCNxRxFW+NXVVEwTZPcvFy+/eZb2T311Qy6detGZWWlpzQaK2aNxvGC4tvhQgghZ08VFqGHQtKvXrlV42fFNG1RVlZWZ/ZUcyKcJuWR/z6aYcOGceFF53v9qk3F7XM3TTkw6W5y5na1tASE7QyEO1ujt1TccaXnn3+RBx94kE8+/Xi9xpo2JXL2VLpFx+v6YJmOYgJsWypsRZEHlrktEjmuJrBMC03Xso6pZCJssJxV2cKWW98IIJlIObV0qXQikQgVFTXjBC0VYcuxjfLySvLy8hoVB5ub0tJycnJy6o1Xt3x0Z099/fXXG7U8Xhclf5ZS1Lb27KlMVLc7p04lqhmxnEEx27dNh+UfaW3Cu93V27quegpDCLwjYoUzx32zGLtmpXm2Zl0mddxvYmOasnCyLMvrWjFN0/MbPiNsp9ByJgRk3t8oJgt+GWoMjfVnYx6ZGX8bYtx32nbNtHF5nK7irSkKhXwKw2n4aaribRqaTplYlnAWrdoYhoVp2FimkLOtnEqtrsvZf3pIthIUBWI5ciNGXdcIh+Sxy5FIZCM1E5oJUVNuCCHltiUjHJkSThd5fbi33G50L186FQl8cpwpR+trsmHbMn81NGSgKrIttXFbd86zvbEEpwmXeb8xyIiV390uVUUB3VEaits83FTGHxZFGtXpz/T372bDsb5ZjPt+fMLtR/H+1XYkvH+++xsLt1D34TanG0ujbDppucnwZV7F7fJxriNqFLPfvutHL+oVhVBYrpuS3Ucquq6h6SqqU/tWlNrPE8532WJxnoPcqQBnlmOLLogVGW7c2WyNS93Nhpd9MsZ6Msm0V6s88X91y5tmMNnzluuH2tczUYEmZcL1wasZ+hK95l7DGtCP616ImjALZz6+ey3zmRvVOO/DP77lpUwNQmRkXtft5jIC3xhLzXTHmv772uFzw4hzzbOT+dyNYBwv1tBYcW1sPPufvSlw5EPJzMl+4/OXcDK0HwVnync9axQyKzI1N2rbF2RUvpxTHTd5nDQSt6yS8io92VL9mlVOG/SrHFeGjLzo/2xGUwsh47chfaC6zeJNQUMat6ko1AhMMz52vRGOP2pMnZzegmkdfm2yDDXB6uaitsxkFOp1crZjJ2Pa7waR5X3N9ejmxo2bJsnAZqaWzGbxtpvEjanlb1TcMqsBPzgDAZmXWzA+v7Ymb7c6WkLkNocfmuMZfyMaKC82O15yttZ0beH+boz3agYCWgtKTchak7dbJI2RkIC/Df7JGy1VNLw8H2T+jUJjorXVtTRs20aQvdm+WWm4VdfyqOXhlhahtWnZvvvr4I1ztfQIb+n+o5X4MYPGeFmV021rWxX+wdpmMY3xiuPjdVgVAizTwrYt+dxMC41BOAPS62syXlqrH9ophJsc7s1MrRpm5nQ7Z4Df7UdX1Np97huVjPiU3/2L7Xx2M/Dko5F+FY5c1MGVl3W866+CP27ltHG/LLcM44pnphy0JOPFp/u5Dr/KazULgjd1meH5xZHxWn6oc0+adSzhaB5qR04DEeJOKRQ1xu/etuQqa8MwNqjgasAXAX9XnE3mXLlDNE3xtHaEbz1Bg3k1oH7+4lG38ZSGL+K8PWqQ2zvDumc/+LWavOB8VxS27ra1XBFumM5hME3cd6ahqY7rMH9xWQhwqKU4/mbUVPDcC/67AY3hrx5lG09pOGWtEPLkPJAb+sVy5J43hmFIS9li2F9YO6vHFQWSiQSHHHIIn3/+JeGIczCOkCtqvVWM2Z6Xgb9LqbGGGu8E/NXJkL+/E26QvaD/DeMgYN00v9Lwd0cBqWRK7pgKfPzxx7z//vvgKBB3m4OGCnpFUTANG03X6NOnDyeffDIXXHARK1euRg+pKIrckVFabuZaou85zfXIgICAgNZKsysNAbi7jgsB4UiY/II87r77XsLhMJ9++ikvvfQKoZBGKpWq6SpaB6oqz1gGuP3223nzzTdZsGAhhx12KE899QxC2EQiIUzTki0D1T1CUvrBbSmsFz63G/KYgICAgL8CzaY0/GMQacNEVcE0THRd5cknn+bmm//L22+/zdVXXc2VV17Jil9/JxaLkEyma49fZEE4B9/oms7akrX07dubt956k6uvuprbb7+dgw8+mM8//9JRRAbJRBojbaFptQ8x8XodsnQ/rcvgutmUM4cCAgICWiDNpjRwCtZ0Oo2iKFiWIBzRWb58BY8/9ji33nor22+/HRddfAGHHnool11+GVVV1USj8jSydaG4A3OKQm6ePLEtnTY49LCD+fDDD9l+u+0ZPfokLrzwYizLIhoLOwcw1X6O2IAuJlexZT4zICAg4O9EsykNxRlLiEbDqKpKKim3MD/nP+cwcNBAzjjjNBIJee2OO+7kl2W/cNGFF4G7Nbdt1565kWUsQVFk6wUgNzcKQKdOHbjjzv8xadJz/DTvJ/75z3/yzNMTiUbltulVVQm59bTbWshQAI0xLoHCCAgI+LvTbEoDahbeJKoT5ORGOeec8/ll+S9cd911AOTkRADQNLj//vt57fXXmDDhKXJyoiQSiZquH1F3AEFxrqtOf5N7cL1tyzO/Bw8exPsfvMvJJ5/MFVdewWmnnclPP80nL0+ezZtIpuRJf85zGo3PbtAzFRAQ8HenWZWGpkE6ZZLXJofXX3+TV199hccee4zi4iLSaWd2ExCPJxk4qD//u+1/PPLwI/z++yratMklnTY9xeFfhes0YkBxzymuUR6KczZ3MpEG4NRTT+b777+nID+fESNGcOedd5NIpIjFIs4RsZbcIRSfQliXEvFpinVZCwgICPg70GxKQ1HwxjHKyyq56qqreOmll9hll50RArmmwiE3J0pVZTWnnnYye+21FwcffDCWJc/TtW15DKx3Lo3IKKwFtVaruoPbkWiYdNokmUyTn5/PNddew8svv8y0adMYMmQI77zzHjgn0yUStWdtCUdJ2bZwPp33+LYPofZ58H993MD+rQIdEBDQEM2jNJwCVtMU0mmT4084nh133JHhw3dDOFNe/UcXokBuXg4AY8aMwUgbnHXWWYRCGlVVVdKKIpWDEBlVfHdGkzvm4FwDCIV0IpEw4XCIwsJCRozYnXfemcy///1vbrzxRg499HB+/vlnb9aWYciWjTszSlXloIdfofjJVF5/raaHDLAXpGytsL9UeAMCAtaHDVYawq5dcP/n7P+waNFiJkx4EsOQ6ybw3ZeOZMFsGBaxnAgTnpzAq6++yqeffE5+fp6nYBTkoSQ1J8y5uCPaGZcd5AC2kIohbXHdddcy8dmJFBYWcswxxzD2nvvQNI1wWMc05GpzBXlmtqM3JK7ycIwXFkep+X+3ZvyblKluoNx48CvQv0h4AwIC1p8NUhpuDb2srAxFgWnTPmb+/Pm88srL3qC3qwA05xxi6VB+hEIa6bTJoEEDeOyxxxl14ijmzZuPpityppXT2qi1T5WQWmFdBbaiyFZDNBomFNYwDZsePbvz1FMTePyxx3nyySfZd999+eKLGeghGQXemIurIHyKIdP47f11cDSwqzPcePhLhTEgIGBDWT+l4avhW5ZN27aFJBIpLr/8cs4++2y2335bb9Gepq+71NF1nVTK4PDDD2Hffffl2GOOpbo6iaqqCCFqKxsXpf5Whh93yqweUonHE5SXVzJ4l0F8OeNLjjzySEaPHs3o0afw24qVoEglZqSd1pH7jsxumka8NyAgIOCvStOVhm/tghy8VkmnTIbsMoS+ffty/Amy0Be2IBzWGlzboKoQiYQAuH/c/aTSKW679TYikZC30aGqZqnU17mQBefdpmkTjcZok9eG6uok4XCEc845m1dffZXKygr23Gsv7rvvPgDZMjHlWIp7fgQi6KIJCAgIoMlKwxl4VnyFuKrCHXfcQVHbIh544AFSSYNQKEw4HMY03L35G66hCwGRaIg33niDV197lbfefFuOOZjypQ04z47jSU1T5XYiCkSjUYRtk06bbL/9drz66sv897838e6773LMMccxZcqH6LocS0km0vL9WbqqAgICAv6ONE1pUFP4VyeSaJrCl198xfiHxzN58mTatGmDYRpomuxaUlTV6yJqqMWhOAfg9OnTi2uuvobjjz+er2d9i64rpN0B9fVVHo4jt8DXdBVd10mnDdauLePoo4/kww+nMHToUE466SROOeU0Vq1aQzQWRtcVTNPKfqpbQEBAwN+MRisNxdm5VtXkvk85OVFmz57D8ScczzVXX0ObNrkkqhNOTd5Z1OBOmaX+bh1XobgzrWwbjj3uaE47/TROGHUClZVxFGflt6I2cjAjkyzvVhSIhEO0bVvoXbvwwvP54P0PqK5OsNtuu/LkhKdJJtOEwho4s70aUn4BAQEBf2UaVhpOIWlZwit7Q6EQ6bTJ+eefz1577sVZZ59BRUUV0Wi0Tue/25Xjb3Fka32oqhz/cM+ovunGm2hb1JYHHniAUFjDMEwsy0LJpgHWEwGkUnLWlLsdyXbb9+P55yfyyCOP8PwLz/OPf/yDTz/9HEUBXddIOntqBQQEBPwdaVhpOGW0oigoqixkVRWuv/56+vTpw+NPPEp1dVK2MDJbAW7DwG/qRfY9udNtc/NiTH57Ms88/Qz33/8gkYiOZVpYthwcb64av6Zp4IzN6LrcWt2yBPvs8w8mT57M4J0Hc9ppp3H11ddSVlZOLBahOp6Uq8YdmssvAQEBAS2dhpWGg6pCWVklkYjOa6++wUsvvcS5554Lzi61mqZJxeLphqYNQLhrMWwbYrEIlilo27aQ8y84n1tvvZXvv5+Lotac0KeqTXp8vaiqUqvVEw7JmVxCgK6r3HvfPXz44YfMnfsD++y9Dw8+OJ5YLIqq4k0rdltTfkUSEBAQ8FekYaXhFKaplEGbNnl89tkXnHveuVx//fXstNMOxOMJolF57reiyFVxcsDZXSFX+3H1oWTYVVSFZCLNmWeezp577sW5554rWxuWhWX9f3vnHSdFkTbgp8OkzbtkVBADYjoVw3lmTz8DehhOxYAZMWcQzAExnvEMIJhOEbMYTj0Dip6KCsjdKQYERYLEzTuxu+v7o7p7emdnIxtmoZ/fr2C2u6q7Ur9vxbdMEgkjbYNqPbRHg5VQ9sZARHrIatNN+/PmmzO4/IrLuf/++znu+OP573+/JRwOogC1tVESiVQLelM+Pj4+3Ru1WaGuyA18waBsgT/88MNceumljBx5CqYpyM+PoKqK7GXYykKa/5D/1xOizb3LFuKWKXsSwVAQBDzyyMP069ePMVdeRTAYRNd1NPv41w7DVn6BgOaaYR858mQ+/PBDdtxhR0aeMpIrrxxLPJGioCAPUDBMIz1U5Um3P3zVMbSgOvlscGyIH1MO1OSmopBxT21JGZimXNn0wAMPsOjnRVx11RgUBRIJOSns3bWtKOljUZ3Nce4muRai2Od7qyoYpkVxcSE33XQTr7zyCgt/WmjPP9jLemmYqPbEGabC7m1tttkm3HTzDTz08EN8v+B7dt55J555ZhqhkE4wqBOLx0jEk/Xmd7xDWD7tRwuqrs8Gx4b4IeVATW4qChn3ZE+jmXII2OP8Z555Jk899RRCQDwul906qN5nNBWBFuL0OHRdxTQEQ4YM4c233mTItttiGNIYoabZOq8d3tcUTk/BsiyqKmuIxRLst98+vP3OW4wdO5Z7/nYPl112JV9/PZf8/AjhSJBkIume+eFa680hminynCNbfLNd89nQybEPqbVkqbTtuSK0zdhRkP+l/8jWKFflsFL9q3KYKe1U25RGaWkx220/BCEgHA7UF4SOf/t3NjKf25xTNfleVZNDXzvssB1GKoUQFsFgMP3+Rt7XXjgHQoVDIQoKC1x7WYmEwdlnn8lnn39OKBTkuOOO47bb7qSysppIXsjtiQnLsyigI+q8/czM/GvKyfLq4IxbXzLSJX976msT0VcU+3ZH5LdPduwedUe67oATTye63jqbLT3pew1lcUeTGR9nmiHtIfO+MxHekg9Lkf6cYaNGW85ZXuK4NuFmLK5JD1VR5TPr++w47BcJIXsNiqK6ptWTSYP8/DB33nk706dP5/PPP2P//ffn3XfeA2ScDcNIZ3FHRLojnunj01psGeHTBFnyJ8ulnKYVMw2yUtgjLuunCNqIc0iSo5g6k4ZmRBRMU6BrOkJI0+p77bUnb731Bqeccgp3/+1uzj77bFau/J1wJIiqypMBFdtcSqNK18fHxyeHaZ3S6GKkcE5hWRamIaeaO0N5KLaiwu3lyG6kqihY9tkewaBOPJ4C4KqrxvD444/Tr18/Dvm/Q7j11tuorq51TzY0DLlB0rJ3v/v4+Ph0F1QhRIOd3E5LuCudGw97PgF7Q18wGEBVVTRdcedavP7c/9vdydPthOeiHKqSB02lUiahUADDsIjHUwwcMIB77rmHRx59hNdee43jjz+ejz6aRTAoV1nJM0OkJnLOIXfOKG/47mZcW8II3H0u3pP70v9ncW1+T/u4zLg2hhumsXT4LsN56oEtCwRy8UauOUdUyfh5629Dv7ngvPGT8W54v/5N6b9Bujrr20PUHy/LvC9A1TQ5Pu8lcy6iK5wbDzU9JCYE9CjrgaYp9pkdYAl5X9Uy/m9np2kKmp7F2dcDAQ1Fkau9wuEAiUSSWCzGAQfsx9w5X3PaaacxatQoRo48jZ9/XkxeXthNq6pJp2lK2+Jvh8nMw6acqsoDsABUVXPrgHMtm/82xW19nDdddh3QtHRcG6NevDs7zt3QOUvmdU1381bTtAb+WuLc5fYd5JxD3TRVc+uqpskGZK44N76eOqvb+ZqZHvCkya7bTrp0XcoUVe24euyNi6rKfFW9n1eWMlCqq2tFdXU1PXr0AHtZqaPhFPu4VSFVkL3L2zPbZWsmYR/JalkWCgqarjXbGnTxtBywtauTecmE3O+goBAMhQDB+++9T1V1FdVV1ey1997svPOOVFRUoanSjInjv70nh1uSHmflg6qoxOIxamtrKSwsxDRNevfuybffLuDGG27khx9/4IwzzuTiiy9CVVUqKysJBkMYRoqAHkDT7Pxr5zTUQ0AimaBnzzKmTnmCRyc9yty5X7NmzToKCgrcA7Bc7y1If/tjL0a065yqqkSjUVKpFGVlZXYcPfXRxrGy7NRdBSXDR3ac7G6JXy9tCdeWMLQxXFNhFEXml6Zrsh4GghSXFBOLxVAVuaS9pdWwNX5bjb2qR1iCUChERUUFmq4RDoUxLbPTVx01jay3iqIQCARYV76OSCRCMBh0ZaSDqqoYpkFhYT7z5s1n2LBhfPbZZ2y++ebU1NSg63qHfXuOnFQUxZXhlZWVlJSUoGs6pmW6sr9euOqqWlFRWUnPnj1kKyOj5IUQWJaFZQk0TSUUCtmJkB+rEGBZJpYliMWiqKo8qyLtpzHkfWHPMAshMA0Tw5S2pcaPH8+oUaPYYYcdUBSF33//nfvvv5/8/HyWLFlC79696de3H9dcO561a8opKirCMAxbsWW8qpOwbONTuq6TiCeIx+MUFRdjmgbxeJyCArlc97XXXuOZZ56hurqaiy++mCOPPJKqqipM0yQYlAdYZZZDswhbsDeUoVkRCJLJJD17lvHEE0/x0N8fYu68OVRX1ZCXn5ehNNLl1Jm4SxHtjFBUWalTqZTbyPFWfAf3I/PmSUtpbb7jye/WhGtLGNoYrpkwwhLoAZ01a9aiaSolJSXE43H7W6/fTmwSW6hnDne3GwJMyyQQCFJRUU4kkkckEsY0LbfVnksIIRs669atIxLJo6AgP31shAfDMMjLizB37jyGDRvG119/zcCBm1FbG/PI0vbN03TDOr3E1jRM1q5bS1lpGYGgs6WiYSNcsSwhqqqqKSkpSl9thF9+WcKsWZ8QCgXdxAf0ACkjRf9+/TngwP0yg7QYt3LabLnF1rz9zttss83WAKxevZbddtuNGTNmsHDhQiKRPLbacku2235IOlBXYytlRQEjZRGLxygszK/nJZU05fkcwP33P8gdt9/B8KOGc+211zFw4Kb1/HYWL7zwMg8//BCffPJxvfjlIrFYglQqRVFRQeYtn/WkurqWQCBAJBJyl9bnGk686mpjBENBAoHcrasO1dW1RCJ5BAKNZKjdUPnpx585fNgwvpw9m569yhrIxM6gsrJ5XaAkk4aoqqqiR48yezjKvuO0uIQ05aFpKl99+RX33nevvG13W/Ly8njv/ffZZZedefvtt1i3roKyslIMQ/Y+LNuUeWM4LZNwOMzKlatYuXIlsWiUU0aews0338zgrQcjgIqKcq688kquvvpqBgwYQGlJKbsM3an+s9zJGk/ks+KURGP3s9FUGPku5ywQTVNJplLU1UUpKSnGMi1QFOrqaolEIqRSKfLzpZHHRYt+4ZZbbuHrr7/m8suv4IQTjqe4uJC6ujiBgBxjdnow3ndlan+psLLFLTtCyJ5GQUEezzwzjUceeYQvvviMaDROXl5YHnpVz3/rnp+dpvIwEzudHsvJqgo1Nc7wVHG6rtqKGux8sIu/fl1oDumvqVqTnZYPf6XJnXcpilyAoesKFRVVBAIBCgrySKVMdN0z8pAtsBdHdtj+mvOeSfM1Q9YFwzAIBnUqK6oJhUOEwyEss2HrvSnSedj42xrSfAzTpPNb06C8vJK8SB7hSLDBd6UokDIsAgGVBd/9wLBhw5g9ezZ9+/UmlZRlkP72miuI5u57kbFQlfplV15RTmlJKZourX9Dw0cqyaQhKu3hqaa0WlMtjyuvHEtFRQVPPDGVeDyFqiiomurabGopTzzxFDfeeCO9evViwXcL2Hrw1m73zEgZfLfgf2y//Y7EYjHOPnsU11wzLqs29gqTrkBR5KFV1dXVlJYWywOsFNtyrrBQVRXLtEgZKSKREADPPvscd915F3n5edx7773stdeeAMSiCcKREKYp55qcuqOqcumvU+jgyocGhZwNgVy+HAoF+Mc/nuXRRx/liy8+Ix5PEg4HM713WZ4q7j+Smuo6kqkUPXqkT1xsiq6Kd3dC2ItJKiqqCeg6BYVSaaxPK769811Ysh4YKYNAUKe8vJL8/DzCYVsQNyG7OhsnLo5sKl9XSSQv4n7rmZimQNMUvvvue4YNG8ZXX31Fnz69MAzLtrGXGaL98OabZcK68nWUlpY2KbtVRVFtAZR5qz6qrY0sK+1kSw5+/eVXhgyRw0SaqhIM6pSXl/P113OZO/cb5s75hnlz5zNvXn33zbz/MGfOPH75ZQkAZ511BkuXLmHevDlsudWWPPfcc3zzzVzmz5/HO+++w+abb8F7/3qPRYsWcs014yCjcgqRbRNeJ2PniXeyy0WRk+QAqqYSDAQxUhZGymLkyJOZO28uBxxwIOeeey7nn38ha9eWE8kLkUoaYD9TsS0K4xS49zXOb+d6Ey4zdk683PmAXMDWkc5v7IlDx6ZXs9itJ5+WoaqKu3qqxXncWTgrd1Q5Bp9z8WsCRVXc76up+tiqut0ByJWqzcdBVTImERvDEvZmNLvL77R6LUuwZMkSttpqKwCSqSQosPS3pdx0401ce+21XH3N1YwbP45x4zzuqnHceOONjBkzhqefehqAaDROXV0My5IWdJ0KHIslWLduHaFQiFg8BkiDiamUiarW38vRQBp2FfbqnXpkDvEocihLVVWSSQNVUbnjjom89uprrFq1ij/+8Y88+ODDBEM6ekDFtEwMw3SHwdaHBk/IlXxrDmcBn0/HYOdtS2RCU0i50r4u8/m5Xmmd2DW/OKfJm51K1sZuBnbzMvNyQ1R7Pbezn0DT5PGvy5cvp7Kqkh133BHAHasfMmQI991/Hw899BCTHp3ElClTmDJlqv3/FKZMncJDDz/MU08+xcWXXAxAXl6Y/PwIQshldYYh50MikRC//fYb+fn5lJTIYYlwOEAgIMf7WpDOLkJGTHHPGpFaWrHvKIocWxUIArqOpssd41ttvQWvvvoyD/39IR57bDKjRo3m2/8tIBQKyHQHtfpGEH182ptOrFvOiEU250XKXu/H3omR9JGIlpgRscvFsuTYG0AiniKVlAL9p59+IqAH6NOnD4l4ingsCUB+QYTBg7diq622YIstN2fzzQew+eab2f9LN2DAJmw+aAA9epSm34d853v/eo/Bg7emproOgCeffIo99tiDcCjsHookssxn5DSutpDOG3fTnuwOBnX3xMDDhx3Kxx/PYrvttueoo4/i4osvdfNX01TithVdH58Njsb0gf3NyAUS3enj33BoVmnEE1JI3TrhVoYdPoxTTj6Vk04+mRNGnMCIESdxzTXXUFFZwciRIzl71NmcMOIEvvvue0AOGxkpi1RSHs8qzYl7nbyWTMoT75y5Ek1X2GTTfoTDQQqL8rn77nv54IP3OffcczE9q7E2nCpT3ySyqso9H7W1UXr2LOWKKy5lxmsz+Hnhz2w9eGumTZuOZQkikZCrQPEq9sY+OB+f7sKG83FvcCiGYYmqyirKGlmN4szgf/LJv1m6dCl5eXlyNZNhoKkawWAQ05LndiuKQm1tLQcfdDC9evdGCItAQFqBbQ2WZWGZFl/P+ZpHH32U2bO/5IEH7ueIIw5n5crV9OnTW7bS7aGp1j6/Q/HEqbKyirKy4iZXd8huuEyAY87BWakmexwp4vE4xcWFANx/34O89c+3GDRoEKPPGc3ue+xKMmG4GwNNyyQYlGYImkLYxh+d1VOTJ0/ms88+JRZLZF3l0SV5bOelt6zr6mKkUqlm15KDDCPscD6NI+zVU1VVNQSDQblPw7TPs+kEmqpbznfjjCo48qiqqoZwKEwoHGjy++oK3LjYda+ysppIJEIoFHCveTFNuTT3++9/dJfcdsXqKSGgorySktKSRlfKIlqgNPAUWFtobYHK3oaJZVlcffXV/Gf+f/jbPX9jl112oqKiCmEJSstKNkyl4Zh+xzZgKGRlAkgmDLmvojCPqqpaJk68leenP885o8/hzDPPZJP+/Ynaph/CkZB8TCPvxFcaPh58pdG+bOhKo7Fb9VDsfQeGYdku/ds0Rf17KUsue7U/2BYXpp0xmgaBgEYoFOC2ibfx4cz32WWXnUgmDEpLi1HqnSu74eIYfhNCWtHVdI38/DwSCYNwOMRdd93BM88+wyeffMJxxx3Hp5/+G8uyUDUNwzBJpUypkDxLo318fHzWlxYpDeyhE12XG/Z0Pf3bWUnl3guo0rpjliVzTTpbSGJvdgHQA7r7OxiSQy4NlrFuwCh2C1uuvpI7NAO6LlsswP7778v77/+Lc889lyuvvJITTzyRZcuWSYu7qkK0LoZhmGnFvfFknY+PTwfRYqXRmaiqFJCWZdWbILYsNqoVE4piK193X1DaXIJlyX0tqZTJmWeezssvv0xpaRmHHPJ/TLhlIkbKIL8gQjKVJJWSisPXGT4+PutLTioNp/cR0PV6Y2uOEN1YcfZ7SOUJkXAYgEQixWYDNuPZZ59m6tSpfDjzQ04ZOZJXXnmN/PwIgYBGNBpP9zjsvNyYem0+Pj7tQ04qDRdbyLmybWOVcfbckDtc5bmlaRrBYMBe0WZx4IH788orr7Dbbrty+WWXc/zxI/jtt2Xk5YWprY1iGDITLUuG9fHx8WkNOa00nJax8//GqDPcISpbhzrKo6FT5IEuhiASiXD11eN4659vsUn/TfjrX4/j739/mIKCPHTbeqWqQm1trfOWjLf6+Pj4ZCenlYZLhrbwDrNsDLjDclmcV7EqCui6Ql5emGTS4A9/2IH7H7iXiRMnMn36dHbf/Y+8/vqbaSVsd+GcHgyQs3NGbW4wdEJyumN9FKKZTO2GafLpHKTSyPUK0lj8Gru+EeIoDZDCIBjQiceTxGIJDjnkID788ENOOP4EzjnnHM444yx+WbyEsjK5NyeZTKLYk0dNnpnRxK2Ops1F3ZFx9ixlVpzzOywwTQvLa0TT0fENeodpZ1nYS6UN4vFEo662NkpdXZTa2jrq6qJEo7EGfuLxBIlEEtO0MAzTNqtf/32q5zxvdxW7Z8+QY5DUWa7tuE6jM9/VmWSpyFkudT52fmfN9oyLqrfi18O55rRIutA1iJ9zb0MmSz602NkEg0FCoRCJRApVVRl71ZV8/fUckskkw4cP55577gOguLiYVFKaiwkGG56l4dLZtdsrzLzX6/3RBErHxrmeokYKWoGwl6LbgtlRJvaChWTSIJkwqK2JUlsbJZWS+5uc/UnBoE4kEmrUFRbmUVCQR2FhPgUFeeTny3MaMl04HETXVQIBDV1XUVVp0qe2JkoslqCuNkYiIS1FG6Z9THFAJ2wvrtA0RfZkqT+n2OBb7Cg6sNw6HDuP3Kzy5Jnbw/Nea3GFbn8yGwWuBfNG7lsClFTSFJVVVfTsmTYa6CYsRwpO2K0kyxJUVVY12LHYaRW5Jdj5JtZ3R3h7pMlThqZpYZqmu8fj1VdncOONN7Lpppuxww7bM2/ePD788H1qa6MUFOTVf0470eY02UJXzsPIk/tKS+XJfY3la2eRrpsyfs6+IlVViMcTBAJBdL35SFZV1bBmzRqWLVvGmtVr0AMBhCWFuSUEiiJ38P/ww/domuZagi4sLKRvn77oAZ1kIomiKpimSTgcZvDWg0kkEwSDQQYOHEgkEml0p69lwapVq1EUKCvrgZFKoWkamq6hqipCCFTVXredoSzbA+eQJWxlnImTz91hRzh2Gpw4V5RXEcmLZD0wypumBQvkyX1ffvllp+0I9yIEVJRXUFJa4po0qvduW3EoqZQpqiqr6JGpNHIJu6JaFlRVVlJcUuKa1yDX4ptLSsOD8zzLsohGoxQVFfD776t5+OGHePPNN9E0jffff58ePUpJpUxSqRThcNgVMk74xtLREtYnTcKdvE8rjQ5r2DjP9ZSl8yd2a0sIgbAshH0MqXvIjiJb6cKSwz9CwLJly/nxx5+YP/8bQqEQS5b8xsKFPxEOR1j088/URaMUFRVSVFTEwoUL2WrLrQiFQ/YxwfZDEaiKSiQvgmVZ6JrO7yt/RwghjwsQkDJSbhIsy6KmpoZQKMTSpUvRdZ1NN92U3r16k0wlGTBgAEVFRey666706tWLoUOHSttlpjx61EGas5Gtz/QcmFx0oWDvIVrfcsjoSWarY6I7K42KKiIRqTS8ytHxZxjyuN0uVRp2GZSXV1CaqTQ834NwehpVVd1Fadg9jZKSenZxciq+HkGTS0rDwYlHNBonEg6jqPDyy69y8kkns/MuO3P66adz4YXng22sUljShIliVxpHNraF9UlTNqXhfJTtjbMPxkmraQgsYWEYBoFAAL2RozB/+20ZS35dwjfzv2HBdwuoqa1h9uwviUbr2HzzzYnFYgwaNIhN+m9CcUkx0WiUAw84EE3XKCoqpqysjFAoSO9evd3ehURWKE3XGvQCDcMiHo9jGAYg65Jin6W98veVBENBampqqamupqq6ih9/+JFFixfx+++/069fP+bN+4ZFi36msLCQvEgeO++yC/379WPAwAH06dOHffbZh0037V/vnQ6GIUilkqiqSiAQkA0MT/2nEQXQgI1eaeRAT6MppeH11i2VRpWtNPzhqVajuP84O8rlUNRLL73CpEcncfMtN3P22Wez1157cdppp7H/fvujanIsPlMotIX1SVNnKg3s+QcpDDV36MmhuqqWlGHw2WefsWrVSt7713usXbeWFStWIIRgwIABBINB/rTnn9hhxx3Yeuut6d+vP4FggGAgSCgshwjbQjJp2CZlBHrG5te2sGrVGsLhMP/73/9YtmwZixYtoqamhvnz5/Of+f+hR88ebLLJJuyw/Q707NmTESeOoLS0lIKCgnpniFu2ReZgMNCwTJqrM77S6HqlYedxk8NTNr7SaG9yWGk4KIBpCVLJFOFIkGnTpjNlyhQ+/ngmK1as5KWXXuLOO+/i5JNP4oYbbqCoqIBU0kRRpY2xtrI+aeospWEY9ed+HH7++RcWLFjArFkfs+C7BSz4fgGmaVJSUsIf//hHDjnkEA499NAWWd+1LDBNeS6MaUrrns4QlyWsJjddqorqymBLCLvCeXDrn3DN8DhDS4qiypMjVTm8hGjeku3q1Wv54vMveOfdd5k7Zw6/LvmVAQMGsPtuuxMOh/nrcX9lxx13rJduyz7iJatCc6LrLTdfaXS90nB7GuWUlpSi2fNw2aqYrzTaG/ejzV2lAXKsOplKEg4Hef75F3n00UeZNesjamuiFBTmsWDBD1x33XX8svgXzj3vXM47b7R9LnvSnlCVK3JaI7jXJ00doTQMw5LpUCBlmCSTSfe44kTCYM2a1bzyyissWrSIuXPnUVdXxx923JFthmzDwQcfzM4779xAuSSThiv0FUVOSgP2HIAsX+88kTf+Qsjiz5ZN7nW7frUY5x32A5xnOGXhKhRVKhdH0VimJXuXGUpl2bIVLPhuActXLGfmzJl89dVXDBkyBCEEZ511Fttttz2DB2/p+hcWxBPZze27+Eqj65WGnccVFRWUlKR7Gpllg680OoDuojSE3J/hKI1Jkybx8cczScRTaLpcpgnw8MOPMuO1GYQjYa699lr23HMP8FgiVu1F/o2lz8v6pEl0gNKIx5OEQkH3GZYFb731Fv/9z3/5es7XrPx9JYqqcOyxx7Ljjjty0EEH1T/gSsiTLTVNQ9c1LEtgWQJdU6ENK4yazR9HYWT5kBvDiUODuHieoShS2TnDXc4cjq5r7h4P0zQQQp4W6WXp0uV8+79vefudt1m7di0LFiwgGAxx6KGHcOCBf2bnnXeiR49SDMNC01SSSTlZHwoF0uXnK40uUxrefBMtOU/DVxodQDdXGsmk0eDkv3XrKrj22muZ9fEsjvzLkYy7ahw9e5VhWWCZFpquNpo+L+uTJtFOSiORMFBsY5iplEEwJM3vT506lZdeeokffviBs846yx122mqrrejTpxfYSiWZTKJpOnoL09yu2MLVqTMKSlblIeWwHPJqTml4hRse4ez8JktYw7AQQtTrmYE8IGv27C9Ztmwpjz32GDXVNaxZu4Zx48Zx2WWXuP4sS67uEgK5UstXGt1KaTRxy2ejJEsF7dGjlEmTHuHpfzzNjz/+yFFHH8XrM95EVUEPqKSShi1I0oLG+e11nUrGOy1TKoxQUCcY1FFUmP+f+Rx11DHsuOOOfDTzI8477zx+/PEnbrnlJq644jL23vtP9OnTi6qqGntiHMLhIIFAIwojWxqzXWsjzqMURfbwFFUq0kwnr3sUhvchDp6ekCPgnN8gX+ZVHt4y1O1Ng/n5EUxTLhqIxaQCOeigAzj99FP57LNP+XjWx9xxxx3cecedbLnl1txy8638+9+fy3qjqwQCqm1EU06CCGeFsU+nkfmNOsOVjd/vjkqjHT9CHy+NNUnl0EU0GmePPXbjpZde4uKLLmbCrRM47LBh/PDDTwRDsuVtGlY9odPpisKD5RF6pimHW0IhnWgszjvv/IsTTjiR448/ntKSUp5++mmef+E5jjvuWPLzw8RiCaLRODU1dVgWFBcXNpi7yErDrMt+rY0otqBvrWtJHNxycy+kr9d7VgaaCsFggEgkCALi8RSxaALLhLKyEk4//VQW/7KY66+/nkQywZgxYxg27EimTXseQBrRDKhYlpDzJ1ne4dMJOI29zOtZ6H5Kw69UHUq27JWmLcJYFoSCAU486QReffVV+vfvz7HHHsu1116PaQr0gEoinpLDD3aLxcqwwdRZqCqkUhaplOmeLPnKK68xdOhQrr/+evr1689LL73MU08/we6774phH11sWRAIBAiHwxQU5KPak/0+jePmjwLhcIBIXgiBwLSPhY5EQpxxxmlMnDiB2bM/Z6edduL6669ju+124JlnplFdXYumKSSTcq+JT+4iexrZpESOk63F49N2ZHdUfvmNyUdvqzWRSDFgwKY88cRUHn3kUWbOnMkhhxzKjBlvoGq2nSPDwLLsw+I7E/t11dW1BAJyGOWrr+Zw8kkjmTxpMhdecCFz5nzFAw/cy+677Uo8lpRnsKsqmqqgqqCpcvjJqWd+fWsCr8FDD5qmoGoKuibH5C1TLjyIx5LcfvtE5syZwxlnnMGYMWMYccIIvv/+R1atXAVC9mzBLssu7rFu1Dj57sl/xTVYmL6WJuvFHCLX49eNqP9RNp6xij32HQoFSCYN1q2rYP8D9uWjjz7m8MMP47LLLufCCy9kxYpV6LqcTJcTniLdNmn88e2CXDprUFRUwKxZnzJy5GmcO/pcVFXlmWef4eJLLiSZNKitjZJMpQiFgyj2AgTh5EUWIejTBI3kl3doTNVkD07XpfXlsrISrrpqDHPnzuWEE07gwgsv5MabbgRF9myTSQPL3u/hPsunc8mW5wqoclNR/buKkjab3FoHHSwYhL15yBPlzDh0hOtsMt/fMc5OmEi3HJxJMO/El9c5QQIB3bVTFQ4HGDPmCj76aCb9+vXnj3/cg9tvvwMjZbi7hhPJlAzbQXkphOwBKSgEgzoTbpnISSedRCSSxxNPPMGz0/5Bnz69KC+vJBjUKSjIc+cpnDT5dAxO/mqagh5QCYelJeVYLMGmm/bnzLNO55ZbbiEWi7HNNttyxx13EQzqGKZBbV0Uw5B7XeSpk35hdQhNZWvGPdvqWP2LuY7/kbcXMiMtIQ3vtQRHeTi/dV2TE+V1cQYNGsjNN9/AY5Mf44P332fXXXflrbfeRtMUQqEAsVjCVVitpbkgyWSKUCiAHlC57LIr+Ns9f2Py5MlMmTKJXYbuhGHI+Q3nDBGcXkXLku3THnjyWgiIRELumS97770X06dPY+LEiVx99dVcPf5aV7nr9mZJXU+vCPNpHzIbkqqipBuTWe4r7kR4d/pw/ErTjti9CktkDFG1AEfgCtnrCIfDxONJotE4hxx6CB/PmsnpZ8gW5MUXX8rnn80mEglhmoJUSq6yct6pKJ466Hmu12WLnhPesuSQ2WeffcHOOw/l2/99y08//sRf/nIE8XiKRDyFsEQ9W0n18L7L+dun/fF8u45cCoeDdr2wiMeTHHfcsbzz9ju88+47/OXIo5g7d75rODKRSNnzZD5dSfdbPeXTsbRUYDo9VPvjVxR5gFMkIg/xEQLGjRvLP//5NvFYnFNOOYWHHnqEVCpFIKC6AsCyHM2R5bkel62FaZpy/kJV4Y033uLss8/mzwf+mQ8+fI8+fXuRSKQIhwIEQwECQa1B2pQs75E36vvz6Xh0XQ5bWRYcdvghzJ8/j/6bbMKee+7JCy+8BHZ5e1vBPl2DrzR82gePYFcVedJ4TU2UHmVlTJk6mamPT+XFF1/k4IMP5qsv58ihJF11hUCDbnAWB2mlJoQUIsGgzqOPTuasM8/ioosu4t77/kYyaVBdVeuaqrCcnpQiw1tm/V6O44S92Mt5l+n4y6JI5XOlE57GrxBy7N2Sw/DN4jyjpQhR/32NkRm/ekufs6QHN0/TvU7nXcKZ02rh8ulWLbP2+BO2NeG62hiWCZMnP8Jdd97Jueeexw8//EReXphYLOYN7dMF+ErDp/1R5Oa6wsI8VE0utTzooAN59913+ctf/sIFF17AX489ntraqNwHYUEqZdYTNA2Ejv23qkpFYxgm4XCQ//7nW6644gruvOtOLrroAqLROMGgTlFxgTQjrtpHlzqC1LbsqniGx7DPzFC19MFJigKaJn+nDItEwiARl8e1Ove9O7AdwWqa8kAdVZPHqzrv9f7vFZTOM7z3vYI6EyHS53w4frzPd1xm/Nz7llxh5o2Lo7SEqJ9XimIviLG9uj8y4lYvDpZcguvkr/eeFzlMKY+alYd+maQMuWIqvyCCqsl4XX7Fpdxww/UcdNBBLPjuB/Lz812F3NJ5OJ/2xVcaPu2HsEd5bOHitHJVVZqLCIXCjBs3lmnTnsMSgj322INHH5mMosrzsQ2P4nCe4Qoj+xUo8twGZ37iiCOP4N577+Xss88klTSJhMPubu5gUKeqqobq6loQcrJcUeSqnWg0nn6HBZouN5c5k/WJhPytqtI+UiikEwoHpAkS+xRJx3SKZaaFpK4rrF69llTSRA+oGEb6MCVXgHpGWGprY8Tj8nx25xmmbZdJUWRvx9kkZ5lSCSQSKeLxFMlkilgsTjyesHsVaSGaiKcwUhamITBN4SoQgcxrRZGKGlu5WHYrPxZLyvTZBillxDJ6ZNS/7yZH2McKW3KTpJMey+69CJEuSE1T3PPLAwHNPR/dUaDYw1HRaJwrrriMAw44gOuuv06mQwPTXlHl0/n4SsOn/fAIQ7BbpICu6+RF8jANg1TSZJtttuK1117m5ptvZvJjkzn55JG8968PCASlMPMO7XgFIYCmaaRS0lLq8ceP4PDDD+f8888llTJleBVCwRCXXHIJP/64kOLiQk499VTmzJlLKBRgxYqVnHPOOfz4449gG9lzegrDhw9nxowZADw/fTrHHXccL7zwEp9/PpvP/v0Fs2Z9yief/BuA9957j/Hjx3Pbbbdz/wP3u0L3889ns9tuuzHsiGHEogl0XSGZkJvVVHsZu5ebbryRxx9/HEj3thRFbpAEsEwTTZc72lUN3n//Q5588knC4QChUIC8vDCRSIhUykBBwUiZKAr8uuRXrr3uWm6deCv33HMPI0eexsyZH6Oq8O677/Hjjz+7B0xFo1I5Lly4iIMO+jNTpjyOpitMnjyF66+/kQkTbuO++x7g6quv5f33Z0qFY6RcBWDYlnBRpC2yCRMm8MMPP4CdZs1e9aQo6TpSWVnD0qXLWb78dxYvXsJPP/3M8mW/U1NTJz3Yyi0vL0wqZTJt2jPE43HOPvscAGrrauWZID6djp/rPh2C2zJ1egsK6AEdRVUwUhbRaJzjj/8r//703wzeejDnX3A+F110CRXlVe5pgaYp5HCJR2+Ypkn//n15btrzfPLJJzz22CT7fbIqr11TzrrycoKBICNOGEFtbZS6ujruuvtuVq9ay5gxVzJ//nxKS0tZuXI1kUiEeCzJaaeeziabbMpJJ40AoLS0lLKyMhYvXszEiRO5/4H7mTBhApMnT6auNkZpaRnbDtmWvn36stlmA1BVmDvnG0499VQefOBBttxiS/bdb1+WLVtBMCQ3OlZUVFFTU0dVVQ2VldWUl1eRTCWprKwkHk+xbt06LEsQj8dYt7aCWCyBQDBv3n/46qs5LPr5F+69517efPNNvvpyDs88M43bbruDGTPeIBTSSaZSBIIatbVRJk68ja222poRJ4zg6aefZtbHs7jvvvu4++57uOaaawiHQyxf/jt1dXWEw9Lc+TXXXMNWW23F1KlTee21N9hkk03YYost2GLQIHr37s3PC3/m/ffeA1t5OwpAmjxPUlFRRUVFFdOnT+erL79i1ao1/LxwMT/+sNAdAnOMEz722GRGjRrFtddex4033MD1113Pppv1Z/r06ba/dKE7e4cmTJjAvLnz+Omnnykr6+E2Hnw6F8UwLFFVWUVZj/T69fXB7YJmtjrXB/t5jZlG7wycYZJmseMq1tM0ekcj7OGaUCjAM/+YxpSpU/nkk49IxFOEwnICuS0o9j+OCWhnWMJJlrAVimWmxy/0gMrXX83ltttvZ+HChUyYMIFjjhkOYA/zOIcaQTyWJJlMsu9++3LG6Wdw+RWX1jua9d133+Pxxx9n0KBBfPPNNwwePJhoNEp5eTmDBg1i/vz5bLXVVqxYsYL/O/j/uPyKS7lq7HiWLl3KnXfdyRdffMGyZct49513QYF+/fozfPhfOO64Y900RqNx7r//AdasWU0wGETXA8TjMV555RWuu+46Ro06C8uCq6++mueff54LLriA448/nqlTp/LLL78AkEgkCIcjLFy4kIKCAvr27UNtTS2KoqDpGn369OHRRx9h+fIVTJo0iV9//ZVly5bz5ZezOf744wkFQ+Tn57Nm7RoOP/xwRo48mXhcmm03TYOLLrqIQCBA/379+eyzz3jjzTd54IH7ueqqMfz440K+//57Jk2axMsvv0x+foQrrxzLypUrmTbtGT784CNuuPEGbrzxRl57bQYDBmxGMpnko48+4phjjuHSSy8mkUhx0UUXMXfuPAYOHEg8FkPTNfLy8vjnP//JnnvuydZbb000GkVTNe659x7KykpIJWWP8OeFi/lt6W/06d0HgeCkk05iwIABPPHEk/Tp0zNdb+w6FI/FycsPM2HCbfz6yy88/sQUKiurKSkpavL76iqceCsbmml04SuNFtPigvOVhpsGty54cJSGacoPQs4NpM/wmPbsdJ6d9iyGYXD77bez225D7V6HaQtolfvve5AHHnyAzz77jP79+9q2ihSCQY3nnnued999l0suuYRoNEYgoLuT5wUFBQR0aYzwtttvIxQMcd/99/LTjwsZtMUgRo8ejWVZHHvsX3nqqSdZsWIF54w6h88+/4ySkhKMlIGiKpx//gVUVVXy3bffUVJawq+//srixYtJJVOsWLGCSF4E0zTR9QCbDxzIit9XMObKMfTt15fVq9fw4Qcf8Nz06UyYcAubbrop0boo69atY9SoUYwaNYqTTzmZqsoq/rjn7tTWRCmvKCcQCHDMMccwfPhwrrzySixLGgJsmLnpPwdvPYTly5fz4ksvsttuu1FbU8uECROY/eVsNtt0M+699152/MP2rFmzjtGjR7N6tVSCmqZx5JFHcuSRR7LwJ6nUNF3jb3f/jYMOPogLLzyfVMrk/fffp66ujsLCQoqLiqmL1lFSUsKll14qz5jff3+EEISCIQYMGIAeaPjR1tZEOe300+jfvz8PPfQg2L0RTUubn5fGJOURvJ9+8hmnjBzJ889PZ6+99nTPr2/s++oqfKXRCjpDaZSWlLgrQjqLFhecrzTSacgy8eug2ObLcS3SmiiKiqYp1NbWMX781fzrX+8yevRoRo8eTUlJEXW1MfLyIxx44J857LDDGD/+KmproxQU5Mk5jYDGs89OZ8GC79h7r7256aab6NuvL8lkkh49elBVVcXbb7/FWWeNYssttySZTHLTTTcAcPfd9zDjtRlMmTqFiopKfvvtN2a89ho33nQjn376b+rq6rjnnr9x++23c/TRR/Pll18xbdqzlJSU0KdPH66+ehwLFy5i6dJlhEMhLCGPTR08eDBFRcWE7CEqhwMOOIibbryRAw7cD4B33v4XN950I7NmzaqnDJyW+WOPTWXs2LGMuXIM3373HcOHD+eYY47GMAxefvll+vbty7Bhh1FTU8f//vetbUV2O7bddlveeOMN+vTpQ3V1NT179kTTNL74/AtOPe1UTjvtNIqKivj9998xDJP999+Pe++9l2QyyUMPPURpaRlr16whFA6xatUqotEYZ515JuPGjaOouMCN5/jx1/LG66+zw447MHv2bF5++WX22GM3975DNBpH0zRCoQALFvzA8ccdzz777MNdd9+NEIKSkkLXrzOkpSjIA7PshsUxR/+V/v378/AjfyeZNNBUDdU5njRH2JCVRmO3chulYQvWJwfILBMlu8LArqCKZ3+ErmsoSOFQWJjPww8/yJtvvMn777/PAQccwPPPv0h+QYSKiip0XWfXobuCPcluWXLSVAgYOfIkbrvtVo448nC+nvMlb775Oq+8/AqXXXYZPcp68Kc992bcuHGMHzeecePGIQQ89dQ/uOqqMRxx5JEIIZgw4RbWrl1DIBjkmX88Q+9evbjiikvJy8vjtNNGUlRUQHFxEXvsvgdbbLEFe+21F1dddTVDhgxh9OhzGDFiBCeeeCJnnnkmW265JVdeeQXYk+5VVTUAjBp1NmPGjqG8vBKAibdN5IgjjiASCVFTU4ew5LLUQFDjo49mceWVVzJo0CAO/r+DOeWUk7n11glccsmlHHvMsdx55538/vvvACxe/AuXX34Ze++9N4MHD8Y0LQ479DD22GMP9tt3P4YOHcpuu+7GmLFjefufb3PvvfcC8OyzzzJ1yhRCwRDvvfce5eXlXHbZZTz22GROGHECvXr2YtGihUydOoW9996bouICamujANx//4O8+OILfPLpJ1x4wYXE4wl+++03sI/UNQ25IkIIyMsLEwoFePfd99h+++1Zs3YN5RXl7L//fhz3179yxhlnMWvWp4BsTDnCKxjUSdgLCkacOILKykpi0QTBoI4lWrBxxafd6J5Ko5HWq08X48xZ271N2YtKu0y/mb9VTSEQ0F2Bue122/D++/9i9OjRjB07ltNOO4N58+bSq2cv+vTtI8Oo9nGhnlbdihWrWLZ0BWvXllNXF+PDmR9y2qmnMWDgAN57/z169+rNylUricfirFj+O6lUimOOOY7KygoqKyrp378/oLDVVltSUFDA3Hlz3WWxDkt+XcL8/8zn22+/ZcGCBei6xowZM7jrzruY/vx0Hn/8ce69917efvttSkvlUcrBQJDiYtmSPumkkygtKeW2ibdx++13UlVVxdgxY0kkpNJ09pcsX/Y7Z5xxBscccwzz588jEonwxhtvEI/FWbNmNTfedCM//vg9Z599JgA7bL89n3/+BZdffjkPP/ww33+/ANMyqaqqoqKiAtM0uevuu5g3by4zP/qAa6+5FiEEW2yxBYccegilZaXss88+FBcV8/XXX/PEE08wcOBAZn40k1deeY2xY8cSCEpDj6GQ7BFVVVXRv39/evYsY+DmAxHC4qeffgJbqWu6gmnJpcexWIIbrr+Jww8/nGHDhjF50mQuu/QyZsyYwX3338fmm2/O6aefzvff/+juGXGqinMefb++/fjv//7L8hXLAXt+zKfT6HZKQwh5wI/8I/OuT4dj57nTS8h02MNOwh168wxTtaS87AaBpikY9v6ECy44j6+++ppQKMS4ceOY/5/5hMPSXImzise09w288MILXHTRhdx+x+2MGTOGsWPHMnHiRGLxGIZhcPHFF3PNtddyww03cN3116EoCueccza7774bpmGy5Lff2HLLLQFBKmWw6667UltbS1VVFaaZXgvct19f/vCHP7DZZgPYequtCYfDjB07llsm3ML48eMZM2YM99xzD1dccQV1dbJFblqmHJ5A2vt691/vMmXKFCZOvI1pz04jLz/cIJMKCgp48IEHmTRpEnPnfsPBBx/M0KFDGbLtEEaMGMG+++5NZWU1tbUxTFMQT8TRNFi9ejWDB2/DBRdcwEknncxpp53GSSefxEUXXcDhhx/uCtpoLEokEmLOnDksWrSI7bbdjp9//pnvFnzH+eefT58+ffj2228ZOGAg544+l4ceeoj/+7+DiMUS7l6Z8847DyNlsPPOQxk5ciTBYNDd6e8MvRqG7CX897//5bUZrzFp0iSeffZZNF2W3+abD2DHHbfnpptuYPfdd+ftt98G+5he3KEe+cwePXtQXFycLg+/AdmpdDulIYWTXUv8ypKTeItHsX84/zeL7UcOWcn9CZYF/fr1ZsqUyVxyySWA3IuBfV4H9qY6gMMOO5yrx1/N+eefz4UXXshFF13EUUcdxS67DGX48OGMHTuWCy44n/POO48LL7yQkL3cNFoXJZIXYfbsLxg8eDD9+/enqrKSzQZsxsqVK1m+fDnFxcXEY7LHMXXqVN5++21qa2q4/IrLycvL5097/omhQ4ey0047MXToULYZvA277LKLKzgVRcG0hXU8Eefyyy9n+x22Z++99+Zv9/yNqqqaBsfKFpcUctTRfyESCTN+/HhOPfVULrjgPILBIKtXrwGgpKSIcDiMqioEAnI+qri4hIL8fMaOHcv48eO48847uf/+B/jrX4/n448/5oADDwAgEskDYLfddmPt2rWsWr2KiooKjjnmWDbffHN++20pDz7wICefcgpDdx1KMinTH9DteAro06cXb775JldddRWXXHIJpaWl7LP3PgBoqlQsTrp223U35s2bx6mnnsqZZ5zJzJkzmThxIpdeerl8HvDbb7/Ru3dvsBVtJslkkkQikb7QksaIT7vR7ZSGX0G6AZlllPl3S/AoGFWVwxoA++27H7FYjEWLFgFyZ7CwlYxpCjbffDN232NXdthhO3bffVe2224If/rTn9hhhx3Ya6892W67Ieyww3bstttQtttuCJFIBICevXqyePFiTNNk1113A7tlu8022zBy5EhKSkowDVMe2GTv4zjjjDO4/oYb2H677QkEAhx9zDEcfvjhHHHEERx66KEc+ZcjOe200wkFgwj78Kqa2hrefOOfDB8+nKVLl/Lqq6/ywgvyvOxdd92Vf/zjWRKJ9P4Dx6S7s4KouLiYiooqbr75Zk4cMYKVK1fz9ddzWbr0NxQlLaT79u3FI48+ghCCvfbai7///QFuu20iuq7bw11HEY8l3R7bjjvuyM477cyK5StYu3YtkyY9ykEHHUxJSTHnnX8eAwZsxq233sqFF17IP996J70Syi6nXr17MGLECF599TX+8Ic/sO9+e4NtssWLpsud4PPmzeO///svV1x+BXfdeRdvvfUW48dfw6hRo4nH4xx55JHyREVNzlVh7wcBSCaS7LTTzhQWyKE+p0x8OofupzT8+rHRIE1jOPaMZI8jHAkzYMAAKirlBLIlLBR7KExVFOKxJDU1daSSJu+99wHPPfc8U6dO5bclS6ipqSMWS0gzInVxkknDNUcRjUYRQvDww39n4MCBrFy1krXr1qLrKqtXrebJJ58kkUzI4TCgtraOm2+6mREjTmBdeTmLFv3MggXfsXz5cn755ReWLVvGF198wYMPPEBVdTWKAn//+8Mc9OeDuOnmmzj33HN54YUX6NO7N4UFhfzjH09x911389hjj7HPPvtwyy23ynkUIedtNE3ltttu4+WXX+awww7ntom3cdJJJ3HI/x3Cueeey/fffw9AVXUVDzzwILfeKv0mk0lefOFFHntsKrfffgeffvIpS5Ys4c47/8Y9997Dxx9/RE1NHTNem8F1113HgIEDOeGEEzjppJM47LBDGT58OMuWLWPVqlXsscdu3HDDDTw6aRIrVqyU+W/KMpowYSJFRUWUlBTz6KOPgl0mLp7f8XiS3Xfbnb/85S8cc8wxPPzIw2yyySY8//zzRCIRXnnlFYqLi9F0xe1JynCy4fDb0t9YtmwpBYVy9ZY0j+nTWXTLJbf+Po31R7R1ya2dvqbS45Z/xgR4a5dJe8OapomRMojkhTj++BEMGjSIu+66g5qaOvLz8t1XWsKyjRkGmPbsdJ559lnKSksZfe5oDjhALm/1kkjIPJgx4w1Wr17N6NGjAPjgg5nM/2Y+Y8Zewf33PcjyFcs5+qij2X2P3QkGdSZPmkIkL8Kee+7JV199RSwWY9NNNqVnr55YpkVxSTH/evdffDP/Gy6//Ap22mkHJk16jIKCAk45+eQGRgQtIZdXArz26uv8tPAnxo0b6/qxLHt3vL2zfOXvK1FUhd69elNYVIiuaxiGiWEYPP3U09LMB9JcPbZSdPZgpFIp8vLyWLt2LXvuuSf7778vn8z6N9sM2YY+fXrJiAGLFy9h7NixxKJRbr/jDnbaaQeEY0wRgaIo9gonhS++mE0inuDAP+/vLn924q7QuDxYu7acxYsWEwqHGDRoEEVFUhE4S1MVpx7Zq88KCiKMGnUuCjBl6mTi8SSBQMCdJM8VlA14ya2vNFpIiwvOVxrtqjRkeIEQgmQySV5emAcffJhpzz7LBx9+QGFhvn2mhuraIlJsg4J2p6BVWLYNqab+lvNq6WutJR5LogcC7jxMU6RSFgF7KMgypc0nRZFH2jpYppwjcTY/thVpgFEWmGEYDTcP2umXu9nr33Pyw1HC0gyIcIeUvH4cDMPCMAz3+Ndk0kDT9KzlFosliERC/O9/33HggQcyZcoUOcQWT9oT75khupYNWWk0dsvHp8txhLOiKCgoRCLSeN1hhx1KbW0tb7zxBti9EDwflrAVRippUl1dSyyaaPbDE5YU5s7HkkpZrnXY2toodbUxotE4lmUhLCngLFMK7Gg0TjyedOdVkgmDVMoikUhRU1NHIpFCWGl/wVCwSYVh2RZ0sQ8nclA1OS/iDMc4ptdVDcLhMEJIa7LJpEFdXYxUSh5SZVlS6NbVxYjF5OmKdXVxadvKVsyplIWCgqqoaJpGJBLCMqGmpo7a2mi9jXbODmxH4DiCLx5PeibyZcvBaURkS62uy3cZhuU+34vwnAPiLH65++672WOPPTjssMMoL6+UCqeZsvVpX3yl4ZPzCCElk6JAdXU1gwdvxYknncgdt99BMiFbxCkjle7l2GF0XaOoqIBIXqjZlqiiQjgiJ6xBmkPXNAXLgoKCPPILIuTlhaXAVuRmM1WTAjsvL0w4HHT3VgSCum1OPUBhYb4U9Gran+o5f6Me9tkWqlpfWXgRArlMFWlR1tubc0yeB4M6+fmReubGI5EQ+fkRIpEgeXlh8vOldVxH+AcCKpquuBZphSXTVliYT0FBnqtMFXtC2qtE5Eo3efKeg66racWo1G9de3HMo6uqPDbY28K1O5nU1tYRDgdZunQ5b7zxBjfffDORSMjdJ9LYs306huw108cn17AlY2FhIevWVXDhhRdSUFjA5ZfLpZq6lhY43sN5GgjmZshULl4Bb5lypY5iD385OOP8Xpy/vcrB+9vbUnexz7ZwyRJ3xTOCKYQM41yrF4csYYWQ1914ePx4wyqKZygx05/9vxtPOw71bjp/2sMzTZIRZ69/RZFzPY5yuOyyyzhg/wPYffddWb78d3fll0/n0v2URpaPwWfDRvG0VFMpOX9RVlbCW2+9xVv/fIvLLruSQFAjGo2jaunT57wCdn1wBJlX0NcTbhnnZGT6y/a7RTTi3xHoTcUhW8KdfHTjkRHnrGTxl/ke9++MZzh+G302Gc/OIo2c+ZvRo89j9uzZXDVuHNj7RJw9Iz6dS5ZiynGaqoA+GxxpwSMLXlUVdE1OAvfoUcqzzz7LP996i2eemUZ+fpja2qg7H+A0kjN7AW3BK2SbFYQ+7UJlZRWapnDNNdfx8ssv8+Ybb7LXXn8EIL8gHzWblvHpcLplrvsf7MaLEMIdforHk+y77948/MgjjD5nNC+88DIFBXnuzmvF7mm0V3XxlUXHI4Q83hagtLSYqVOe4PXXX+eDDz5g6K47y6N7ncUPPl1Ct1Qa4A9TbbR4yt2ZeD3kkIN44cUXGD9uHJdfdiWaJs2P1NbGMC3vDIdPLmOagkQiZW/qgwsuuIj77ruPKVOmMHToztTVxcjPzwd72KrdWgM+raL7KQ17hYlfYXwcTFMwfPiRPP2Pp5nx+gxOO+0M4vEkBQURNE0hFou7Q1Y+uYllyQ2I4XAAy4RddtmFzz//nEcefYS99tqTZNIgaJtjAb/R2JV0P6XhD0/5ZKBpCqmkyX777cOnn3zKb0t+49hjj+W776Rpjby8cMMlrL7Q6Toy8j4ajaOqcnnvG2+8xc4778zBBx/Mv/71L/bff18Qchmxs6TYp2vpfkrDrzQ+WQgENeLxFL379ObjWTM5deSpHHzw/3HKyacye/ZXrr/KymrwyK32mCT3aTne5cfRujjYSn31qrVceOElnHvuuZx88sncc8/d9O7di2TSyNAxvgDoarqf0vDxycARROFwgGBAp64uxkknj+Cll16ksqqSo446ivvue4DKympKSopIJg1SKXm+g6LIo2Z9OgfDMEkkUliWIC8/zNo15dx22x0cc+wxJJMJXnrpJcZffZV9/K+cu/AqGkfd+7q+6/CVhs8GgWWb8DAtyM+PYBgW++yzF//855vMmDGDhQsXcsABBzBz5scEg7pru8mynPMZUpimNMPh0054TJTE40nXkGEoHKC6qpp777mfww47jJdffoXzzjuPKVMms88+exGNSmvC0oxLFkNUPl2KrzR8ui3OzmZH0Cu2qRHLkqYuUimTeDzJn/70R/7+979z4AEHcvDBB3PwwYfy3HPP8/vvq1BVqWQCeoBkIolpWr7iaCWZ+SWEo8AFiUSSQECaGAkENCorq7n66mv5015/Ytpz0xh71VXMm/c1p556imsvKy8SwrKkFV1nyXT6HXJ4yh+k6jp8peHT/RENnbBAVTWCgaBcxqkp3Hf/PaxcuZITTxzBjBkzOPLIIznppJHMnv01qgaRvBC6rpJIyFaxT8vInJyWZlWkPfNwOMjaNeV8Muvf3DbxDv74xz/y4Ycfcvvtt/PVl18xYsRxgDQuGQqGCAQ0hL24QT7c1xC5hq80fDZYFPufUDAgW76moHfvnowadRYvvvg899xzD5Zlceyxx3DiiSfz2b+/YNmyFW6rWAhp6juZNLNaYd3o8fQwHIu5IA0d6rpKZVUl9937AIcedijnnX8ec+bOZezYq/jqq9kcc8xRaLqCaZ8Dr2ryoClvr8XfTJmb+ErDZ4PFkT/CHrrSNIVUyiSVMhECDjhgP1544Tk+eP8D1q5Zy8TbJnLcccdzwgknMnXqk6xatZpQKEAwqKGq0mChM07f7XF6ZRnDS+7vptJo9+RMS8g8QVrRVRRpSv3hhx9l77335c9//jNPPvUkp512Ot988w2vvvoSo0adSSollbBlgaopaJoqJ7w9z/fJXXyl4bNRdP+dFquua/XW+1dWVrPd9kP44MP3mDRpEtdddy3FxcXMmPEa++67H8OHH83NN09g7dpyed51RuvXNAWplEkiYWCk5LkQIod7JcIZvsu84Q4r2XMSluwByHmhlEyfYc/3KNK4oKYpqBrMmvUpN988gcMPO4Kjjz6aJ598kj333JPx48fz0cyPuPTSi9D1AJWVNViWNIeuqvUt+tYbhdoI6mN3xj+5r4W0uHVpx1X4J/c1aJWvj305IaSQidbFMUyDoqIC99mNCWnRyBCHYpePQzKZQlVV94hSkMtw582bx/PTn2fx4sV8M/8biotLOPHEEZQUl3DU0UfRp0+femEcLAtSqRSGYboGFhVVASEn6NcnH9YH4T0MSZGb6sKhMMlUEl3XMQyDRCKBruuoqpr15D6AxYt/ZebMmXz88ccs+G4Bq1av4ogjjmD//fdniy22YNttt6WkpMj1X1NTR35+ftayaLSeNYJc5AA11XUEQ0FCoUCT31dX4dQxZQM8ua9bKo3SkpJO//BaXHDdUWk8M42pU6Yyq6OUhv17fcpMOEojGscwWqY0IHtcFfcf2VNQVWng0DQtTMNAUZUGAnPF8pW8/sbr/Pjjj7z44osEg0EGDhzIlltuSV5ePqPPOYfSslL69evXcPe5B8OwpElvAao9LKNpGoqiAulzwNsLYZ8vbpomlmWBANOSw3P5+RG3DmQjkUixbu06Pv30U9auW8vrr79OVWUVixYvYvfddqektITjjz+ev/xluHskrYNTToFAAF3T0XQNIQQKSv2zOmidrPCVRvuy8SiN0pJ6H35n0OKC64ZK49lnn2PKlCnMmvWRe8Zzo+lthdKQaXN1BqrS9jITnp5GyjAoLk4rDctKv8NB/m0v28z4SL3US6cdbzkMI8+vDgZDaKpH0NnEYglmfjiTTz79lLlz5/DLL7+y005/oG/fvixZsoStt96anXbaib59+7LFoC3o2asneZE8InnZW+9eTFNGSlUVjJRJMpV0TcNnQwiBrusEAwGsjIJriRJa+tty1qxdw8qVq1i0aBFLlvxKbW0tP/30E6tWrqJnr54UFxczZMgQ9tlnH/bfb3+KSwrBrb/yOYq93FlYcmJbASwhz3dXFHmalWNo0CkvYQvWJpJXD19ptC+tVRqiOaXR2shmfrjthv0xN9bTaG08W0ur0uURmLmvNAxCIZ1p06bz2GOPtUxp2GTLkwbXMsbOG8uDliBspVFXF8MwTFdpSMGU6TuN4v7TcuqViUfoJpNyF7lpmui6tIXksHz57yxbtoz/zP8Py5YvY+XKlcyZM5e62lr22XcfysvLWbBgAdttux2Dt9kGTVMZMGAgBQX5bL755vTo0QPDMBg0aBAF+XkIAYlkinA4ey8gG46QwVGkCvz++0pWr17N4sW/ICyL1WtWs3DhzxQU5DNv7jwM02TdurUkEgnbgqzCttsOIRQKse2227Lnnn9i6NBd6vWeTFPYCjVAMplC0zRUVR7Z6iCELH9HiSkoUolnKwxfaXQbpQHtrDQ6DFdpQGVlBSUlJfJj9gjonGEjURqdjfAMT6VSKYqLC92Psr3j6jxPWALVcwqgIwix/zNSBqZpYloW+fmRBmVcXV1LLBYjHo/z008/sXLlSpYsWcKK5Sv4/vvvUVWV0rJSCgoKWLp0KUuWLCEUDBGOhLEsi1gsRmmpHPJKJpOoWb5kIQSBQIBoNEplZRWpVIpkMkEymWTTTTclGAhSVV1NRUU5ffv0pWevnoRCIVKpFEOGDKFXz14MGjSI4pJiBg0aRO/evRvM08TjSZJJ2dvRdV3OeSgqqqZgGpZ9BK59trgzb+LtaTZoTaQRdt5m5l1j+EqjfdkIlIagsrKKkpJiX2msJ8KjNJ577gUmT57ULZRGXV0MI2XI4ZEOLH93nsQj0IRdjtkEnWVPfpumSSKRQFEUiouLGi13gETCAATl5eWUrysHBSoqKolG6+hR1oNff/2VhT8vxDDstb6NoqCqCuFwmM0224xePXuRMuTkfmFhIaFQiPz8fILBIPn5+fToUZr5AADKyysxDIP8vHyEEGi6RjAYbDjE5fQghezlqXI6JnvdbSraXrKFzYKvNNqXjUJpVFVWNUhUzsST7qk0pk9/gUmTuo/SSKUMSjpYaUATgrAZHIGRSCQJBYMI5FkRhmGgqhqqqhAKyd3PnYllK8JoNGYrPYVkIommaYTDYWrratE0naKifLfOKkoWwe/pUbhZ1JHl4MGy5GIBX2m0D21RGk3cylFyrHJsEHRgpewIOq0KtPFFzkceCgVR7P0I+fl5FBYWkp+fRySSh7AEpiFdMmmQSKSIRRNEo3Hi8STRaJxYLEEyabTKxeNJYrEE8ViSeFwaYnRcMpnEMi2CwQCBQIBIOExBYQH5+fkEgnJeQsuQFsLuVdRzXoVh97wcAdnRzqfr6X5Kw2ejp1voODuSsicpfyvIsX9VBT2go+kKmi7nCQKBAKFwiHA4TCgUJBIOEwqG5ByCJucRWuKCwSDhcIhQKEgoGCQYCLguEAjY5jo0NE0DBVRVdc9ctyNZj0yh7QpvjxD3BfrGha80fHw6gmxCNOOao1BsGew6B1dIqw2FdlNOBm7oVMdqrCKVF07vIDNiPj5N0P2URrdoZvr4NMQr1F3hTkPhXu9ae2I/042H910+Pi1EKo0crzT19IQnrt6uf06QS3FpEe64Sbek22W3TzsgK2u9ITWfjiUjq1XVXmOdy3hjZ1kWwrJPWGtLvenIMJ5JQRnHpuxbpOm64QH5Xsuy3BVcLdIgLc0PL20JQ8NwqqrWa6VnbTRku9YS2hKus8LQxnCtCCOEkKZGcpSsZd1a2vKMtoTx4P2+mnqUsHfPZ6WRyy7N3W8BQoAlvLLAsxDCbqALIYc5UTNtJCAj4bbkW+naGqaxcMIbLSHWr5XRApnYgBaGcfJaCIElpJ0fh8Ye4QwTNFDcbUliq8PIAEIIhL2tOjMaWWmJn0zaEoZ0OCd4Zl3N+tisF1tAW8J1VhjaGK6ZMPVu28u/3e8wl3Di4whfS7ixbyaJ9WmVZ5u2hHGi6uZp89+XsNLfocTjuYlw0IL7LSEjrh7d4aI4w1OKqsjzkW0b95YpTSM7D7Fa6ExL/o9tc6alzrSkgG3sXcISWLZLG3erX4/kfef/bC59Twi5Uauhn2xO+nPMRje8n/Yn4yIN4Om6hqLKNdayBdd4WNkrkedbm4Y8o8ByjsxshZNhWhbOMgWWKSOtaRqaLvcMONe8afem0Y2zsOtKlvQ0dGDZ5283nYcZYezfwjFHYcsJy7IwTYFhmBi2ocG0/3Z4V4P7Tbu2vas1YdKuLXW36XfJ6yAlmqbp9eY7nHIWTTjnvvOeloTxhm1JOBkZ0HQZMUtYCEuaam+Ypmwu7a8tedi6MpbhnPoqzaxoWd7ppFvmv6bLVW2u0LYsTz45cfE6R2bL5zn51zAu2Zz8TpxnmYZAseNab9m1k2ZbZhimhSKEELFYooFVz1xECFi3rpzS0lK5EY520rDtiFshhUV1dTVlZQ03TeYKqZRJIKAxbdp0Jk2axKefzsI0hPth5iJCQF1dlIKCvMxbPutJVVUNqqpRWChtXzXVKu5qVq5cTY8ePTp9g2SrsJXGunUVTRqrNE25y/27b7/n8GHDmDt3Lr16lXV6GQgB69aWU1pW2tAKgAelurpWVFZWkp+fj6o4a7YVoInxtc5GyOEby7KoqnbO09DcOLYunjJtHYGzjFGWtKCyopLSsjIs07RPJuuY97YJAclkkrIeZTz++ONMnjyZOV/PYd26dYTDYUznSLZcQchWUDKVpK6ujqKiIizLtppqW7NN03FlvKGhoGAJC13XqaysJBAIUJBfgGnJOosgJ+qt850rKKBAVVUV+Xn5BENB2TtuXMZ1Os6SZiHkyMi6deXkRSIEQ6EG85yKomCaJoUFhcz7Zh7Dhg1j9hezGbj55tTW1KDrukx7k2XQ1vpeP5yiKFRWyB3hmqa5czGZ8lVJpUxRVVlFj57Z7dG0BiHS2jUjb9YLx8S1ZVlUVlZSUpJFE7Ymz9qSx87rsoXzmFWQPX3ZVayqqqRHj1JM0xZq2cJmYGdfhyMQJJNJIpGQ3dOYzKeffkw8niQcDrrHeLYXbUmXsPWvYuevNCMSxzAyDBZmqWutake0MX60MVxbwtDGcM2GUUBYsndZUVGFrusUFuZjGFa9/Rw5gT00qesqVVU1BINBIuEQptWI9dx2otk89OCts5Zt8mTdugoikTzy8kJYXv1m/zAM2eP/9tsFDBt2BF99+SV9+/WuZ7W4ObyytzXlJewwzrB6ZWUVpaXFcqjLFO7hYSD9KXK/jyJvtAOK4tmIpLafU1UF1Z6wdyqyUzCuyxKuUdda/06YxsIpUqApqjwzIh0/ma+KIuPfIFwW5zyno52qKO6kshNf7NVJ0ND/+rq2pEt1wtn5K+OnpONoxzkzXFtcW+LX1nBtCdPWcM2FkfXSqafy+/L+brTOd4GTdcHzTakqOJsWs/hvL9dcHjbw68qldFzT35fHv+0vXZ+d/JaeMxd9NIVbTm0pLycPFVzl68Sj3vOc+ELrNFOXYM+BCueHE+EcirewJ8rqRcnzRw5FFez4uF1ebzxzKaJ2njq/G1zzWW/qZ6W3AudeJmeWu/N37sU0A28Es0Q2M10OjVzuENKfl1cYpH96abkq8/Hx8fHZ6Gl3peG0uH18fHx8NjzaXWlA490aHx8fH5/uTccojfaZV/fx8fHxyTHsafvMyxJ3creFzu9h+Pj4+GzYZO9ptHFeog1BfHx8fHy6EVmVhnD/8fHx8fHxSZNVaUDjQ1Y+Pj4+Phs+9foNnj8aVxq5imenpa/YfHzal/QGWp+NHUfMyj/SP7uf0rBpy5yLj49P00ijpT4bI5ky1TEb4nV0V6WRaXXRx8en/VBI2yDy6XzS8q3j5ZziUQ4gjVc299pupzScpb2K0il56uOzUWEJaYbVK0h8OhlbrnVK49gZ6feUtXsmV/pSPbqd0lDsf0TzCtHHx6eVOD0Myzn21afzaUxadzTOCZkOjcSj2ykNB0VpNE0+Pj4+Pq1EqouGhy5l0m2Vho+Pj49P5+MrDR8fHx+fFuMrDR8fHx+fFuMrDR8fHx+fFuMrDR8fHx+fFuMrDR8fHx+fFtPtlEbTi8F8fHx8fDqSbqc06pk48Ddq+Pj4+HQq3U5p2FrDx8eng2hmb5fPRk73Uxo2fsX28Wl/FNVvkfk0TbdTGkIILMvyjan5+HQAwhIoCqiK4n9jPlnpdkpDQUFRFGmw0O9t+Ph0CMLvzfs0QrdTGl78hpCPT8fQnNE6n42Xbqc0nKqs+BPiPj4+Pp1Ot1Ma9fSE3xjy8fHx6VS6ndLw8fHx8ek6fKXh4+Pj49NifKXh4+Pj49NifKXRgfhTLj4+Phsa3U5p5KogzraQK9u13CL3Y+jj45NbNK402iKd2xqmmXDe2/XEXA7JvGxJaHDNSWtzrjV+vWFaE871XD8fcyhLsyK6QRx9OoaNpty933MnIvO3+VxWAZRs9gKyXGqWtoZpJpyi2A4FYeeoyBSWXYyMn+3s9DjJcpPoemjGtcavN0wrwimky927kcvJ31zDiZWiZIljA2Xo02a8dSmXEN2keL2RdCut51ozKM7H6fk+Owtbsjab0YphWKK6uprS0uLMe7mDkBlvWVBeXk5ZWRkAqiMEcwghpGAzDUFVdRVlZSXutc7YZKu0QnYmkylCoQDPP/8iDz30EP/+9ydUV9cSDoUxLTPTe5egKIrbWFBVldraOkzToKysDNOUcay3e9n+aeVaqyJHUVCwhIWu65SXl6NrOoWFhRimIfO+kwVXUyiKgmmahEIhysvLCQVDhCMRLNPMKTngmDoyLRNN01i7dh15kQh5+fkIYdUTWgpgmAb5eRG+mf8fhg8fztdff03fvr0xTYGmdV7CLAvWrVtHaWkput74IJQihBCVlTUUFxfmvIEymahySktL0FRVtphzKM6O7FIUMFIWdXV1FJcUYlktj2dblItia4rWBBMCUimpNKZOeYLpz0/nww/fz/Tm4+PTSfy2ZBmHDzucjz76iN69e2IaAk1voeBoBywL1q1dR2lZC5RGRUUVBQUFqKr0KFt3rRNCtLKV66Ul4RQFTFOwdu0aSktK0XQNwI1zS3Cyv7l3ZdKS+IG0ECoQ6LpKIpEiFotTXFyIZdpdjRY8xTsE13LakDIBiWSCvLwwb//zXY459lj22GN3qqqq0DW9DXHoIOxoCASappFKpairq6OgoADTNBu0hL1/q0rL68bGjNOLi8ViaJpGJBKxrUnbVkE7T241imPdWlVVVFWlqqqKcDhMMBjEsuq33rsegaIoWJZAVRXqausoLCpCUcCyrQh7vKJqKrquU1cXpbx8Hd/M+4befXqSSsmeSnO0TLLUx42C/UNRIJWyWLd2LaVlpQSDAY/vNAqgVFRUifLycvLz8z1KQ03LuNaURWv940ltE+Gc4R3LsqitraW0pBTsvxGy0reIFrwrK02ly7knwBIyPrquE4/HiSfiFBUVSVPuKC2I5fpEkBaHc3yZlkVeXoSff/6Zzz//HF3X3eGgTGHcpShSaLRWaSi+0mgWWXU9SkPViOQ5SkPW51xACIElPEqjsopwJEIwGHC/r1xBkJZXqqJSW1dHUVEhiqIgrPpK2KnXhmEQj8eJRCIMGzaMcDiMZVotO9+kdZ9/GpE+P0UIUFWFyopKSkpL0DQNy7QQQjaEvSimKURFRSVFRYWtarV3NoqiYJkWddE6iosLwU6oZeVIrbYrAICmqaSSBnXROkqKizEtq4Fw6zJsJacoCkLIlpBpWNTW1VFSIvM110kmDYJBPfOyz3pimaA237DNCZJJk2Cwe0S2NfVVeI586AxLw3LeylEaUFlZTUlJUdqDHR+vXlKSSUNUVVXRs6ecXMaOeE5hCzrLElRUVFBSXIKqOb2iTM9dh5P5TpwqK2ukIHZ6IzmGU0GFEKxbu45evXum459DdcCJiqpCbW0UwzDqVexG62tj133SKCAsqSwqK6vRNI2CgnxMU7gHMeVK9VUUMEyBritUV9USCAYIh0P28G+m765EQVXTgnjdugoi4QjhSLhRReCMRCiOTOuk9HjlZ3rOuBS9ibkU1RmOcD8w7/854oQnwoqioKiyMrvJyhKmUx31WwjO385N93JmuK50HhQUVFUOSbpOzR2nqvZKOUBVtQZzFfXinaNpyFln55PMWxVV1VAUOVTh+FEzw3SRw44XgKIqqPYwuqIqqDnl0nXQzVdNs+txpl/pFE8+u4It85ttb5eBVFjNn9iouoEdj97/c8QpdpSgkQRnCdOprv5P+bfiXPVezCGXEa/MccvcpbvEs7vi52+7I9x/Wpe7md9se7sMWhrD3J3EaIosCc45ms/73KE7xdXHp7vhkVfdQXQ1R/dUGj4+uYS3y9/RbmNjA0i7O2ztDLVnlmmmy3F8peGz4SLkJK9w/u8ol+W77zCX+e71dfVW6+C2hZ0WcQP/ne08ae92OJEWwl66KhedpBegZHe5ntjuqTRyPFN9uhb3A8Qj/TLHc9vTdSaZ715fl/Fo5+NyBVim/852mXSXb9+zgKd+lLMlKoMWeOlKup/ScCpTrlWeHC/ojQ67xZbZiusI15lkvrt9nK0o7Jaw/C06Lf+acg3SnnMffnaE/Y9MgzfOzcc/M925RvdTGshlYTmHaEl18Ok07CoipKRpIIzay3V2oTvvzIxHW518qPv0BjurM/13lPMqefl/J2dsB5BOgTdPWyC7cjzp3VJpdAmeip2VjKXB0ltjnn06C0WRBdNgD0c7uZbIgHbD2XiZJR5tdVA/DYrq2bOVxX9HOff9bvoaZmzDK7lNOgl2hgrP72w49SnHE9rtlIYQts2pTs5YAViiYZHXq/ieOLmtJ59Ox/1YswinjnCdRpZ3t4+TiVAUVdZZRW5Ca+ivg1z9JNa7Vw+FrMokF6mfPjvOTvy9ysHjvGnPZbqd0pAZ2zW52jVv9cl1GgjBDnQdS7qV0+XtHTsCnZf2DsBNgzQAqigNlWK99HWTNHY7pQFdV6O76LU+Pj4+OUP3VBrdRCP7+Pj4bGh0T6Xh4+Pj49Ml+ErDx8fHx6fF+ErDx8fHx6fF+ErDx8fHx6fF+ErDx8fHx6fFdE+l4a999fHx8ekSup/ScDbB+IrDx6f98Zez+zRD91Ma4NdsH58OQZHmb3x8mqBbKg3FY1PNx8envRCoqt8g82ma7qc0BAhLdE9bND4+Oc6GYJLcp2PpfkrDx8eng/CHp3yap3sqDb+X4ePTAQj/0/Jplu6pNHx8fHx8ugRfafj4+Pj4tBhfafj4+Pj4tBhfafj4+Pj4tBhfafj4+Pj4tBhfafj4+Pj4tBhfafj4+Pj4tBhfafj4+Pj4tBi12+3mceLbBTtXu1tWtQTFthqs+HZZfDx0eW3o8gi0A3YaukBUdSgqopFEZb2YG7gCrpMrVg5nyXrh2xvycfEKuk6qFsLj6l3s7thp6GQx1eGospVZ/6Li/pObCCE6tVI7ZOZTd0dx06SgKHKkcgNLok8rqdfj7KTKoNgyqN731ZJ3d03bseV4FfAGhKooSsOhCU8httZBx+aSEALTNOXvzJsdSIM0bgg4lVpYqHbCOjNPfXIPp9eZ+V13lsuUPU2heLRG5nO62tVnw/qqVCEaGZ5wLnn7js05b9DMe+vhRPrRDZDx7xyH5/96jiz/A3Z/yHuh650Tj0wyK3pmuC52ol7UvH819Ou7Vjgn/zJx6rr9u8Mc9b8v7/Vsft3/oX49yPTbla4xnHqc6b8rnSduWXGue/z/Pwd/xb8sIJnJAAAAAElFTkSuQmCC;" vertex="1" parent="1">
          <mxGeometry x="160" y="320" width="480" height="465.49" as="geometry" />
        </mxCell>
      </root>
    </mxGraphModel>
  </diagram>
</mxfile>
